<svg width="436" height="354" viewBox="0 0 436 354" fill="none" xmlns="http://www.w3.org/2000/svg">
<g opacity="0.4">
<path fill-rule="evenodd" clip-rule="evenodd" d="M253.953 60.0009C311.114 136.127 336.018 140.482 379.462 154.965C408.15 164.534 455.093 177.496 427.738 251.542C391.938 348.456 214.824 374.633 117.983 338.458C25.3759 303.87 -47.765 163.815 38.3259 55.1701C85.7625 -4.70133 186.565 -29.7505 253.953 60.0009ZM262.801 51.9526C247.512 25.393 257.972 -6.79031 311.879 1.25782C365.785 9.30596 409.232 44.7251 426.936 84.9567C444.642 125.188 434.182 159.796 375.444 142.898C316.708 125.99 281.429 84.3131 262.801 51.9526Z" fill="url(#paint0_linear_255_36299)"/>
<path fill-rule="evenodd" clip-rule="evenodd" d="M253.953 60.0009C311.114 136.127 336.018 140.482 379.462 154.965C408.15 164.534 455.093 177.496 427.738 251.542C391.938 348.456 214.824 374.633 117.983 338.458C25.3759 303.87 -47.765 163.815 38.3259 55.1701C85.7625 -4.70133 186.565 -29.7505 253.953 60.0009ZM262.801 51.9526C247.512 25.393 257.972 -6.79031 311.879 1.25782C365.785 9.30596 409.232 44.7251 426.936 84.9567C444.642 125.188 434.182 159.796 375.444 142.898C316.708 125.99 281.429 84.3131 262.801 51.9526Z" fill="url(#paint1_linear_255_36299)"/>
</g>
<path d="M94.3739 267.056V269.212C94.3739 269.271 94.3739 269.323 94.3739 269.382C94.3154 269.619 94.1401 269.737 93.9648 269.737H75.5614C75.3861 269.737 75.2108 269.56 75.1523 269.382C75.1523 269.323 75.1523 269.271 75.1523 269.212V267.056C75.1523 266.761 75.3276 266.531 75.5614 266.531H93.9066C94.1401 266.59 94.3739 266.82 94.3739 267.056Z" fill="url(#paint2_linear_255_36299)"/>
<path opacity="0.5" d="M78.7743 266.59L78.1317 269.737H75.502L76.1446 266.59H78.7743Z" fill="white"/>
<path opacity="0.5" d="M87.4805 266.59L86.8379 269.737H85.3184L85.9617 266.59H87.4805Z" fill="white"/>
<path opacity="0.5" d="M79.8263 266.59L79.1837 269.737H78.541L79.1837 266.59H79.8263Z" fill="white"/>
<path opacity="0.1" d="M94.3745 269.382H75.0938V269.737H94.3745V269.382Z" fill="#4F3500"/>
<path d="M93.7896 263.91V266.065C93.7896 266.354 93.6143 266.59 93.3223 266.59H74.9771C74.7433 266.59 74.5098 266.354 74.5098 266.065V263.91C74.5098 263.621 74.6851 263.385 74.9771 263.385H93.3806C93.6143 263.385 93.7896 263.621 93.7896 263.91Z" fill="url(#paint3_linear_255_36299)"/>
<path opacity="0.5" d="M79.5341 263.385L78.8914 266.59H76.2617L76.9052 263.385H79.5341Z" fill="white"/>
<path opacity="0.5" d="M88.2396 263.385L87.597 266.59H86.0781L86.7208 263.385H88.2396Z" fill="white"/>
<path opacity="0.5" d="M80.6443 263.385L79.9434 266.59H79.3008L79.9434 263.385H80.6443Z" fill="white"/>
<path opacity="0.1" d="M93.8482 266.183H74.5684V266.531H93.8482V266.183Z" fill="#4F3500"/>
<path d="M94.3745 260.704V262.861C94.3745 263.157 94.1983 263.384 93.9063 263.384H75.5611C75.3275 263.384 75.0938 263.157 75.0938 262.861V260.704C75.0938 260.415 75.269 260.188 75.5611 260.188H93.9063C94.14 260.188 94.3745 260.415 94.3745 260.704Z" fill="url(#paint4_linear_255_36299)"/>
<path opacity="0.5" d="M80.1191 260.188L79.418 263.384H76.8477L77.4903 260.188H80.1191Z" fill="white"/>
<path opacity="0.5" d="M88.8236 260.188L88.181 263.384H86.6621L87.3045 260.188H88.8236Z" fill="white"/>
<path opacity="0.5" d="M81.17 260.188L80.5274 263.384H79.8848L80.5274 260.188H81.17Z" fill="white"/>
<path opacity="0.1" d="M94.3745 263.037H75.0938V263.385H94.3745V263.037Z" fill="#4F3500"/>
<path opacity="0.5" d="M76.6699 253.954L76.0273 257.1H73.3984L74.0411 253.954H76.6699Z" fill="white"/>
<path opacity="0.5" d="M77.7228 253.954L77.0801 257.1H76.4375L77.0801 253.954H77.7228Z" fill="white"/>
<path opacity="0.1" d="M92.2701 256.746H72.9902V257.1H92.2701V256.746Z" fill="#4F3500"/>
<path opacity="0.5" d="M77.4303 250.75L76.7877 253.953H74.1582L74.8591 250.75H77.4303Z" fill="white"/>
<path opacity="0.5" d="M78.5408 250.75L77.8982 253.953H77.1973L77.8399 250.75H78.5408Z" fill="white"/>
<path opacity="0.5" d="M78.0163 247.61L77.3739 250.75H74.7441L75.3868 247.61H78.0163Z" fill="white"/>
<path opacity="0.5" d="M79.0665 247.61L78.4239 250.75H77.7812L78.4239 247.61H79.0665Z" fill="white"/>
<path opacity="0.5" d="M81.1113 257.041L80.4104 260.188H77.8398L78.4825 257.041H81.1113Z" fill="white"/>
<path opacity="0.5" d="M82.1639 257.041L81.5212 260.188H80.8203L81.5212 257.041H82.1639Z" fill="white"/>
<path opacity="0.1" d="M91.3365 259.833H72.0566V260.179H91.3365V259.833Z" fill="#4F3500"/>
<path d="M92.1529 273.459V275.614C92.1529 275.903 91.9776 276.139 91.6855 276.139H73.3404C73.1068 276.139 72.873 275.903 72.873 275.614V273.459C72.873 273.17 73.0483 272.934 73.3404 272.934H91.7441C91.9193 272.934 92.1529 273.17 92.1529 273.459Z" fill="url(#paint5_linear_255_36299)"/>
<path opacity="0.5" d="M77.8993 272.934L77.2567 276.08H74.627L75.2696 272.934H77.8993Z" fill="white"/>
<path opacity="0.5" d="M86.6036 272.934L85.9609 276.08H84.4414L85.0838 272.934H86.6036Z" fill="white"/>
<path opacity="0.5" d="M78.9493 272.934L78.3067 276.08H77.6641L78.3067 272.934H78.9493Z" fill="white"/>
<path opacity="0.1" d="M92.1529 275.732H72.873V276.08H92.1529V275.732Z" fill="#4F3500"/>
<path d="M95.894 270.26V272.409C95.894 272.704 95.7187 272.934 95.4267 272.934H77.0813C76.8477 272.934 76.6133 272.704 76.6133 272.409V270.26C76.6133 269.964 76.7892 269.737 77.0813 269.737H95.4849C95.6602 269.737 95.894 269.964 95.894 270.26Z" fill="url(#paint6_linear_255_36299)"/>
<path opacity="0.5" d="M85.6102 269.737L84.9676 272.934H82.3379L83.039 269.737H85.6102Z" fill="white"/>
<path opacity="0.5" d="M94.3749 269.737L93.7323 272.934H92.1543L92.8552 269.737H94.3749Z" fill="white"/>
<path opacity="0.5" d="M86.7205 269.737L86.0781 272.934H85.377L86.0196 269.737H86.7205Z" fill="white"/>
<path opacity="0.1" d="M95.894 272.586H76.6133V272.934H95.894V272.586Z" fill="#4F3500"/>
<path d="M79.4179 270.312V277.654H65.3959V276.544H54.2953V277.654H40.2148V270.312H79.4179Z" fill="#1FC07C"/>
<path d="M65.3953 276.544H54.2949V277.713H65.3953V276.544Z" fill="#96E3C1"/>
<path d="M65.3953 270.312H54.2949V276.544H65.3953V270.312Z" fill="#96E3C1"/>
<path d="M79.4179 277.306H40.2148V277.822H79.4179V277.306Z" fill="#00A15D"/>
<path d="M83.9152 262.744V270.083H69.8354V268.916H58.7348V270.083H44.7129V262.744H83.9152Z" fill="#1FC07C"/>
<path d="M69.8367 268.917H58.7363V270.083H69.8367V268.917Z" fill="#96E3C1"/>
<path d="M69.8367 262.744H58.7363V268.976H69.8367V262.744Z" fill="#96E3C1"/>
<path d="M83.9152 269.737H44.7129V270.312H83.9152V269.737Z" fill="#00A15D"/>
<path d="M82.8645 255.172V262.514H68.8429V261.347H57.7419V262.514H43.6621V255.172H82.8645Z" fill="#1FC07C"/>
<path d="M68.8432 261.348H57.7422V262.514H68.8432V261.348Z" fill="#96E3C1"/>
<path d="M68.8432 255.172H57.7422V261.406H68.8432V255.172Z" fill="#96E3C1"/>
<path d="M82.8645 262.166H43.6621V262.744H82.8645V262.166Z" fill="#00A15D"/>
<path d="M83.9152 247.551V254.945H69.8354V253.777H58.7348V254.945H44.7129V247.551H83.9152Z" fill="#1FC07C"/>
<path d="M69.8367 253.776H58.7363V254.945H69.8367V253.776Z" fill="#96E3C1"/>
<path d="M69.8367 247.551H58.7363V253.777H69.8367V247.551Z" fill="#96E3C1"/>
<path d="M83.9152 254.597H44.7129V255.173H83.9152V254.597Z" fill="#00A15D"/>
<path opacity="0.4" d="M77.9574 259.249H56.3984V277.654H77.9574V259.249Z" fill="#00A15D"/>
<path d="M97.587 259.951H58.3262V278.347H97.587V259.951Z" fill="#96E3C1"/>
<path d="M96.3616 261.059H59.4375V277.188H96.3616V261.059Z" fill="#1FC07C"/>
<path fill-rule="evenodd" clip-rule="evenodd" d="M92.4463 262.218C92.4463 262.98 92.7383 263.68 93.2649 264.205C93.7907 264.728 94.4916 265.017 95.3096 265.017V273.288C94.5501 273.288 93.8492 273.577 93.3234 274.1C92.7975 274.625 92.5048 275.328 92.5048 276.08H63.4096C63.4096 275.328 63.1175 274.625 62.5919 274.1C62.066 273.577 61.3649 273.288 60.6055 273.288V265.017C61.3649 265.017 62.066 264.728 62.5919 264.205C63.1175 263.68 63.4096 262.98 63.4096 262.218H92.4463ZM73.8676 269.093C73.8676 271.886 75.6791 274.159 77.9576 274.159C80.1774 274.159 82.047 271.945 82.047 269.093C82.047 266.295 80.2359 264.028 77.9576 264.028C75.6791 264.028 73.8676 266.295 73.8676 269.093Z" fill="#96E3C1"/>
<path d="M79.7766 235.389C79.5428 236.547 79.1922 237.656 78.6666 238.705C78.5498 238.934 78.4913 239.171 78.3745 239.348C77.9655 240.16 77.4981 240.919 76.9716 241.615C76.738 241.91 76.5634 242.138 76.3298 242.433C74.9854 243.947 73.3498 245.225 71.5386 246.155C71.188 246.332 70.8377 246.503 70.4871 246.621C69.903 246.858 69.3186 247.087 68.6762 247.265C66.3386 247.965 63.7682 248.076 61.1977 247.551C52.6676 245.809 47.234 237.479 48.9866 229.037C50.7399 220.536 59.0947 215.124 67.5662 216.867C70.5456 217.509 73.2912 218.965 75.5112 221.12C79.2507 224.843 80.8866 230.204 79.7766 235.389Z" fill="url(#paint7_linear_255_36299)"/>
<path d="M79.1584 238.103C79.0933 238.365 79.028 238.626 78.897 238.888C78.7666 239.282 78.6362 239.676 78.4399 240.002C78.3746 240.199 78.2436 240.396 78.1783 240.593C77.8518 241.249 77.3945 241.904 77.0028 242.494C76.8065 242.757 76.611 242.954 76.4798 243.214C75.3693 244.525 73.9324 245.641 72.4294 246.426C72.1686 246.558 71.8419 246.689 71.5806 246.82C71.0575 247.017 71.9877 246.521 71.4646 246.652C71.2039 246.717 70.8772 246.783 70.6156 246.849L60.7617 236.103L62.5549 236.262L62.8816 235.543L61.1885 233.864C61.1885 233.864 65.2048 230.915 65.0744 230.783C65.0087 230.718 66.5707 225.578 66.5707 225.578L67.9699 226.567L69.6522 225.578L79.1584 238.103Z" fill="url(#paint8_linear_255_36299)"/>
<path d="M67.6838 240.816C63.6388 236.21 61.6165 233.873 61.6165 233.805V233.783C62.5106 233.783 63.4469 233.556 64.4248 233.101C64.9489 232.895 65.4971 232.451 66.07 231.764C66.5032 231.083 66.7407 230.501 66.7826 230.017H68.6478C68.6618 230.017 68.9901 229.549 69.6329 228.608C69.6329 228.589 69.6154 228.575 69.5803 228.569H66.7092C66.5764 227.963 66.3251 227.449 65.9548 227.026H68.6478C68.7247 226.965 69.06 226.49 69.6537 225.597V225.578H59.5731C59.552 225.578 59.2203 226.044 58.5777 226.976V227.026H61.2392C61.6864 227.026 62.1892 227.116 62.7482 227.293C63.5306 227.593 64.058 228.011 64.3305 228.547V228.569H59.5731C59.5591 228.569 59.2203 229.037 58.5566 229.976C58.5566 230.004 58.5707 230.017 58.5985 230.017H64.5924C64.5924 230.236 64.5505 230.446 64.4668 230.65C63.9287 232.046 62.556 232.742 60.3485 232.742C59.8805 232.742 59.4718 232.72 59.1226 232.672L59.1016 232.722V234.081C59.1016 234.101 61.0715 236.346 65.0115 240.816H67.6838Z" fill="url(#paint9_linear_255_36299)"/>
<path fill-rule="evenodd" clip-rule="evenodd" d="M61.7223 245.107C62.5985 245.284 63.5335 245.403 64.4097 245.403C65.6365 245.403 66.8632 245.225 68.0909 244.939C68.5582 244.82 69.0256 244.643 69.6097 244.413C69.7558 244.354 69.9018 244.281 70.0478 244.207C70.1939 244.133 70.3399 244.059 70.4859 244C72.005 243.247 73.3486 242.197 74.5168 240.862C74.6045 240.744 74.6922 240.627 74.7798 240.511C74.8674 240.394 74.9551 240.278 75.0427 240.16C75.5101 239.516 75.9189 238.882 76.2704 238.238C76.3049 238.098 76.3598 237.982 76.4109 237.874C76.446 237.799 76.4794 237.729 76.5033 237.656C76.9128 236.786 77.2633 235.853 77.4386 234.864C78.3733 230.492 76.9713 225.95 73.8159 222.805C72.005 220.943 69.6682 219.724 67.1553 219.201C63.6502 218.44 60.145 219.142 57.1649 221.061C54.1855 223.042 52.1408 226.009 51.4399 229.444C49.9201 236.608 54.5361 243.593 61.7223 245.107ZM57.749 222.11C59.7361 220.825 62.0144 220.131 64.3512 220.131C65.1691 220.131 66.0453 220.25 66.9809 220.479C69.2592 220.943 71.3624 222.05 73.0565 223.742C75.9189 226.593 77.1466 230.67 76.3286 234.687L76.3273 234.692C76.0942 235.561 75.8605 236.433 75.4516 237.249C75.4332 237.287 75.409 237.329 75.3826 237.376C75.3254 237.476 75.258 237.594 75.218 237.716C74.8674 238.357 74.5168 238.941 74.108 239.457C73.9327 239.694 73.7574 239.93 73.5821 240.101C72.5306 241.267 71.3039 242.256 69.9018 242.958C69.8019 243.006 69.6913 243.055 69.5791 243.105C69.429 243.171 69.2761 243.239 69.1424 243.306C68.9194 243.378 68.707 243.451 68.505 243.52C68.2306 243.614 67.9755 243.702 67.7397 243.77C65.8702 244.354 63.8838 244.413 61.9561 244C55.4123 242.604 51.2061 236.26 52.5499 229.74C53.1923 226.593 55.0617 223.854 57.749 222.11Z" fill="#F9B400"/>
<path d="M314.558 251.304H200.285L208.057 220.632H306.789L314.558 251.304Z" fill="#966338"/>
<path d="M312.018 251.301H202.824V279.437H312.018V251.301Z" fill="#B55A3A"/>
<path d="M306.7 151.774H304.371V220.632H306.7V151.774Z" fill="#B55A3A"/>
<path d="M314.558 184.505H200.285L208.057 153.835H306.789L314.558 184.505Z" fill="#966338"/>
<path d="M301.861 184.505C301.861 188.182 299.019 191.161 295.512 191.161C292.006 191.161 289.164 188.182 289.164 184.505L284.848 153.833H295.818L301.342 181.863C301.675 182.673 301.861 183.565 301.861 184.505Z" fill="#F4D4BE"/>
<path d="M229.996 153.834L225.951 182.576C225.951 182.576 225.951 182.579 225.951 182.58L225.68 184.503C225.68 188.18 222.838 191.16 219.332 191.16C215.824 191.16 212.982 188.18 212.982 184.503C212.982 183.565 213.171 182.672 213.504 181.861L219.025 153.832H229.996V153.834Z" fill="#F4D4BE"/>
<path d="M251.938 153.833L251.083 184.13C251.083 184.138 251.081 184.147 251.081 184.155L251.072 184.505C251.072 188.182 248.23 191.161 244.723 191.161C241.217 191.161 238.375 188.182 238.375 184.505C238.375 184.109 238.41 183.722 238.474 183.346L240.965 153.835H251.936L251.938 153.833Z" fill="#F4D4BE"/>
<path d="M276.467 184.505C276.467 188.182 273.625 191.161 270.119 191.161C266.612 191.161 263.77 188.182 263.77 184.505L263.761 184.155C263.761 184.147 263.759 184.138 263.759 184.13L262.904 153.833H273.875L276.368 183.345C276.43 183.722 276.467 184.109 276.467 184.503V184.505Z" fill="#F4D4BE"/>
<path d="M314.559 184.505C314.559 188.182 311.717 191.161 308.209 191.161C304.701 191.161 301.859 188.182 301.859 184.505L301.34 181.863L295.816 153.833H306.789C306.789 153.833 314.559 183.302 314.559 184.505Z" fill="#EB5648"/>
<path d="M219.028 153.833L213.504 181.863L212.982 184.505C212.982 188.182 210.141 191.161 206.635 191.161C203.127 191.161 200.285 188.182 200.285 184.505C200.285 183.304 208.057 153.833 208.057 153.833H219.028Z" fill="#EB5648"/>
<path d="M240.967 153.833L238.474 183.345L238.375 184.503C238.375 188.181 235.533 191.16 232.027 191.16C228.52 191.16 225.678 188.181 225.678 184.503C225.678 183.835 225.772 183.189 225.947 182.58C225.947 182.579 225.949 182.578 225.949 182.576L229.994 153.833H240.965H240.967Z" fill="#EB5648"/>
<path d="M263.772 184.505C263.772 188.182 260.928 191.161 257.422 191.161C253.916 191.161 251.072 188.182 251.072 184.505L251.081 184.155C251.081 184.147 251.083 184.138 251.083 184.13L251.938 153.833H262.908L263.761 184.13C263.761 184.138 263.763 184.147 263.763 184.155L263.772 184.505Z" fill="#EB5648"/>
<path d="M289.164 184.505C289.164 188.182 286.322 191.161 282.815 191.161C279.309 191.161 276.467 188.182 276.467 184.505L276.368 183.346L273.875 153.835H284.846L288.893 182.578C289.068 183.187 289.162 183.835 289.162 184.505H289.164Z" fill="#EB5648"/>
<path d="M306.929 149.714H207.827C207.167 149.714 206.635 150.247 206.635 150.905V152.644C206.635 153.302 207.167 153.835 207.827 153.835H306.929C307.588 153.835 308.123 153.302 308.123 152.644V150.905C308.123 150.247 307.588 149.714 306.929 149.714Z" fill="#B55A3A"/>
<path d="M208.057 220.632L200.285 251.304H238.237L240.846 220.632H208.057Z" fill="#894631"/>
<path d="M240.846 220.632L238.236 251.304H276.398L273.817 220.632H240.846Z" fill="#894631"/>
<path d="M239.406 251.304H237.068L239.678 220.632H242.016L239.406 251.304Z" fill="#B55A3A"/>
<path d="M273.816 220.632L276.397 251.304H314.557L306.788 220.632H273.816Z" fill="#894631"/>
<path d="M275.228 251.304L272.646 220.632H274.987L277.568 251.304H275.228Z" fill="#B55A3A"/>
<path d="M202.974 240.068L200.285 240.604L208.057 220.632H306.789L314.558 240.604L311.946 240.03L304.753 221.63L210.195 221.385L202.974 240.068Z" fill="#B55A3A"/>
<path d="M234.344 217.116C234.344 217.116 238.301 216.444 239.177 225.49C240.049 234.536 234.079 236.538 231.789 234.188L234.344 217.117V217.116Z" fill="#EE9023"/>
<path d="M231.838 216.573C231.838 216.573 228.516 214.324 223.968 222.197C219.419 230.067 224.025 234.361 227.083 233.168L231.838 216.573Z" fill="#EE9023"/>
<path d="M232.564 217.085C232.551 216.86 232.529 216.61 232.496 216.376C232.463 216.138 232.42 215.904 232.369 215.675C232.319 215.446 232.255 215.225 232.181 215.013C232.111 214.8 232.023 214.603 231.933 214.416C231.666 213.866 231.898 213.204 232.45 212.939C233.002 212.673 233.664 212.905 233.929 213.455C234.004 213.607 234.039 213.767 234.039 213.925V213.984C234.041 214.286 234.03 214.581 233.997 214.864C233.964 215.149 233.921 215.426 233.861 215.695C233.802 215.964 233.732 216.227 233.653 216.485C233.574 216.747 233.487 216.99 233.379 217.255C233.292 217.471 233.046 217.577 232.829 217.489C232.674 217.426 232.575 217.28 232.566 217.123V217.086L232.564 217.085Z" fill="#6A8530"/>
<path d="M233.329 216.346C235.732 216.864 235.807 224.464 235.064 228.873C234.102 234.584 231.089 235.761 228.975 235.306C226.696 234.812 224.873 231.129 226.245 226.963C227.391 223.479 229.996 215.63 233.326 216.347L233.329 216.346Z" fill="#D67513"/>
<path d="M218.338 218.262C218.338 218.262 213.467 216.389 208.973 224.136C204.479 231.882 211.46 235.584 215.297 234.236L218.34 218.262H218.338Z" fill="#EE9023"/>
<path d="M221.777 218.588C221.777 218.588 226.913 217.664 229.871 226.116C232.827 234.566 225.272 236.892 221.76 234.849L221.777 218.588Z" fill="#EE9023"/>
<path d="M219.625 218.7C219.601 218.404 219.596 218.149 219.607 217.873C219.616 217.6 219.644 217.326 219.691 217.048C219.732 216.77 219.798 216.49 219.886 216.21C219.969 215.927 220.087 215.648 220.221 215.367L220.269 215.266C220.569 214.634 221.325 214.364 221.958 214.663C222.591 214.962 222.861 215.718 222.561 216.35C222.462 216.558 222.311 216.729 222.134 216.852C221.98 216.957 221.822 217.072 221.676 217.212C221.527 217.35 221.382 217.504 221.248 217.675C221.115 217.843 220.985 218.024 220.871 218.217C220.755 218.404 220.646 218.62 220.558 218.8L220.525 218.866C220.414 219.103 220.129 219.201 219.894 219.089C219.737 219.013 219.638 218.862 219.625 218.699V218.7Z" fill="#6A8530"/>
<path d="M219.934 217.905C216.634 217.591 213.711 224.311 213.032 228.462C212.151 233.84 215.613 235.86 218.516 236.133C221.65 236.431 225.377 233.748 225.151 229.61C224.963 226.149 224.511 218.342 219.934 217.905Z" fill="#D67513"/>
<path d="M230.66 229.258C230.66 229.258 234.385 228.217 237.159 234.247C239.933 240.278 234.523 242.521 231.784 241.258L230.66 229.256V229.258Z" fill="#EE9023"/>
<path d="M228.098 229.258C228.098 229.258 224.371 228.217 221.6 234.247C218.826 240.278 224.236 242.521 226.972 241.258L228.098 229.256V229.258Z" fill="#EE9023"/>
<path d="M228.984 229.501C228.931 229.361 228.865 229.194 228.795 229.048C228.723 228.899 228.642 228.757 228.552 228.621C228.464 228.485 228.37 228.363 228.269 228.249C228.173 228.135 228.061 228.039 227.956 227.951C227.557 227.619 227.505 227.026 227.84 226.628C228.173 226.229 228.767 226.177 229.163 226.512C229.295 226.621 229.389 226.759 229.444 226.908L229.474 226.989C229.553 227.205 229.619 227.42 229.663 227.634C229.707 227.846 229.735 228.059 229.748 228.266C229.762 228.474 229.764 228.678 229.753 228.879C229.742 229.085 229.718 229.271 229.68 229.49C229.648 229.68 229.466 229.807 229.273 229.774C229.146 229.752 229.045 229.662 229.003 229.549L228.986 229.496L228.984 229.501Z" fill="#6A8530"/>
<path d="M229.505 228.881C231.964 228.881 233.649 234.043 233.859 237.155C234.133 241.185 231.438 242.435 229.275 242.435C226.942 242.435 224.381 240.194 224.836 237.155C225.218 234.614 226.096 228.884 229.505 228.881Z" fill="#D67513"/>
<path d="M258.009 229.503C261.311 224.851 260.739 218.779 256.729 215.94C252.72 213.101 246.793 214.57 243.491 219.223C240.187 223.873 240.761 229.947 244.768 232.785C248.778 235.623 254.705 234.155 258.009 229.503Z" fill="#1C8E4A"/>
<path d="M244.768 232.787C245.878 232.873 246.976 232.822 248.043 232.671C249.108 232.516 250.144 232.242 251.111 231.835C253.048 231.021 254.662 229.645 255.822 227.897C255.971 227.678 256.119 227.459 256.253 227.231L256.463 226.895L256.656 226.551C256.79 226.323 256.904 226.087 257.018 225.851C257.141 225.619 257.233 225.374 257.34 225.135C257.531 224.647 257.712 224.157 257.835 223.649C257.907 223.398 257.953 223.142 258.008 222.886C258.048 222.628 258.096 222.369 258.116 222.111C258.229 221.07 258.162 220.006 257.932 218.962C257.699 217.919 257.311 216.891 256.731 215.944C257.138 216.326 257.478 216.778 257.78 217.255C258.087 217.731 258.337 218.243 258.543 218.777C258.953 219.844 259.167 221.004 259.15 222.166C259.143 222.748 259.091 223.33 258.977 223.903C258.876 224.477 258.712 225.037 258.523 225.586C258.131 226.68 257.585 227.708 256.941 228.658C256.312 229.623 255.508 230.512 254.584 231.234C253.657 231.96 252.601 232.514 251.49 232.866C250.381 233.22 249.226 233.38 248.087 233.365C247.517 233.356 246.952 233.306 246.398 233.212C245.841 233.115 245.291 232.991 244.77 232.787H244.768Z" fill="#1BAF56"/>
<path d="M256.729 215.943C256.753 223.271 251.722 230.416 244.768 232.788C250.933 229.12 255.283 222.95 256.729 215.943Z" fill="#1BAF56"/>
<path d="M256.73 215.943C251.318 220.475 247.096 226.081 244.769 232.788C244.175 225.381 249.668 217.999 256.73 215.943Z" fill="#1BAF56"/>
<path d="M256.729 215.943C255.629 215.655 254.505 215.576 253.416 215.659C252.325 215.746 251.267 216.005 250.296 216.444C248.335 217.31 246.751 218.834 245.491 220.589C244.234 222.332 243.368 224.341 243.237 226.477C243.169 227.543 243.274 228.626 243.537 229.691C243.8 230.755 244.203 231.803 244.768 232.788C244.356 232.391 244.01 231.928 243.697 231.444C243.381 230.96 243.116 230.442 242.888 229.904C242.439 228.827 242.185 227.65 242.154 226.457C242.119 225.265 242.327 224.061 242.719 222.934C243.116 221.805 243.695 220.75 244.389 219.796C245.077 218.845 245.879 217.96 246.804 217.21C247.029 217.016 247.279 216.848 247.518 216.672C247.641 216.585 247.77 216.51 247.895 216.429C248.022 216.349 248.147 216.269 248.28 216.199C248.795 215.895 249.352 215.663 249.915 215.463C252.176 214.69 254.72 214.856 256.729 215.943Z" fill="#1BAF56"/>
<path d="M215.858 233.326C215.858 233.326 210.273 232.713 207.729 242.011C205.185 251.306 213.47 253.24 217.092 250.785L215.858 233.326Z" fill="#EE9023"/>
<path d="M219.528 232.72C219.528 232.72 224.62 230.348 230.021 238.33C235.426 246.315 228.204 250.809 223.984 249.647L219.525 232.72H219.528Z" fill="#EE9023"/>
<path d="M217.319 233.429C217.214 233.127 217.138 232.864 217.072 232.573C217.008 232.286 216.96 231.991 216.932 231.691C216.901 231.391 216.89 231.083 216.905 230.766C216.914 230.45 216.96 230.127 217.019 229.796L217.043 229.678C217.181 228.938 217.893 228.45 218.634 228.586C219.377 228.724 219.865 229.437 219.727 230.177C219.684 230.42 219.572 230.641 219.421 230.816C219.291 230.969 219.158 231.131 219.044 231.317C218.925 231.501 218.818 231.702 218.726 231.916C218.632 232.129 218.549 232.352 218.481 232.584C218.413 232.811 218.358 233.067 218.319 233.278L218.303 233.354C218.251 233.632 217.983 233.811 217.705 233.761C217.519 233.726 217.379 233.593 217.319 233.429Z" fill="#6A8530"/>
<path d="M217.421 232.516C213.9 233.094 212.711 240.89 213.147 245.4C213.712 251.238 217.868 252.389 220.967 251.877C224.306 251.326 227.448 247.512 226.074 243.265C224.924 239.715 222.303 231.713 217.421 232.518V232.516Z" fill="#D67513"/>
<path d="M265.974 239.704C271.964 238.492 275.836 232.663 274.624 226.683C273.412 220.702 267.575 216.835 261.585 218.045C255.597 219.256 251.725 225.085 252.937 231.066C254.148 237.046 259.985 240.914 265.974 239.704Z" fill="#1C8E4A"/>
<path d="M263.77 239.932C273.866 235.232 274.385 222.118 263.77 217.833C276.259 219.943 276.101 237.422 263.77 239.932Z" fill="#1BAF56"/>
<path d="M263.77 217.833C268.989 223.967 269.026 233.816 263.77 239.932C267.426 233.035 267.394 224.726 263.77 217.833Z" fill="#1BAF56"/>
<path d="M263.769 217.833C261.429 225.089 261.187 232.689 263.769 239.932C257.989 234.148 258.23 223.696 263.769 217.833Z" fill="#1BAF56"/>
<path d="M263.769 217.833C262.548 218.252 261.409 218.829 260.381 219.538C259.358 220.247 258.449 221.092 257.732 222.063C257.009 223.028 256.484 224.118 256.146 225.264C255.809 226.411 255.664 227.619 255.655 228.833C255.647 230.043 255.798 231.24 256.151 232.376C256.501 233.514 257.062 234.582 257.796 235.542C258.53 236.503 259.439 237.35 260.452 238.081C260.953 238.453 261.49 238.785 262.042 239.096C262.318 239.253 262.601 239.398 262.89 239.538C263.177 239.68 263.469 239.811 263.769 239.932C262.478 239.779 261.225 239.334 260.042 238.75C258.863 238.151 257.763 237.345 256.841 236.345C255.914 235.352 255.193 234.146 254.729 232.851C254.271 231.553 254.073 230.177 254.089 228.822C254.104 227.477 254.295 226.111 254.742 224.818C255.182 223.521 255.883 222.308 256.795 221.293C257.704 220.28 258.813 219.47 260.005 218.89C260.605 218.607 261.218 218.362 261.849 218.186C262.481 218.009 263.122 217.874 263.771 217.836L263.769 217.833Z" fill="#1BAF56"/>
<path d="M252.953 249.61C257.598 248.004 259.857 242.365 258.004 237.017C256.148 231.669 250.878 228.636 246.235 230.242C241.59 231.851 239.331 237.487 241.185 242.835C243.041 248.183 248.31 251.216 252.953 249.61Z" fill="#1C8E4A"/>
<path d="M252.952 249.614C259.168 243.12 255.501 231.024 246.232 230.247C256.471 228.879 261.526 244.146 252.952 249.614Z" fill="#1BAF56"/>
<path d="M246.232 230.247C252.197 234.44 255.076 242.639 252.952 249.617C253.568 242.525 251.086 235.444 246.232 230.247Z" fill="#1BAF56"/>
<path d="M246.232 230.247C246.756 237.232 248.85 243.877 252.95 249.617C246.596 245.84 243.791 237.127 246.232 230.247Z" fill="#1BAF56"/>
<path d="M246.232 230.247C245.362 230.967 244.643 231.829 244.076 232.757C243.512 233.687 243.101 234.689 242.892 235.731C242.448 237.812 242.761 239.976 243.453 242.011C244.141 244.035 245.272 245.895 246.937 247.227C247.761 247.897 248.705 248.435 249.722 248.833C250.739 249.232 251.823 249.507 252.952 249.617C252.391 249.72 251.814 249.735 251.243 249.711C250.666 249.687 250.092 249.606 249.525 249.479C248.39 249.223 247.288 248.757 246.297 248.096C245.307 247.439 244.448 246.577 243.756 245.608C243.068 244.634 242.546 243.555 242.172 242.442C241.799 241.334 241.547 240.175 241.477 238.989C241.451 238.696 241.459 238.398 241.455 238.1C241.455 237.952 241.47 237.803 241.477 237.656C241.486 237.507 241.495 237.359 241.516 237.212C241.569 236.619 241.707 236.035 241.874 235.466C242.568 233.192 244.183 231.243 246.229 230.249L246.232 230.247Z" fill="#1BAF56"/>
<path d="M279.812 231.996C279.964 232.098 280.119 232.199 280.277 232.297C280.66 232.536 280.983 232.341 280.803 231.991C280.748 231.888 280.693 231.783 280.643 231.678C280.367 231.698 280.06 231.777 279.815 231.998L279.812 231.996Z" fill="#F39200"/>
<path d="M302.289 217.905C301.292 223.083 294.887 225.952 290.352 223.398C289.944 223.182 288.498 222.363 289.526 222.077C294.684 222.626 298.314 221 302.289 217.905Z" fill="#F9B233"/>
<path d="M302.28 217.912C302.28 217.912 302.284 217.908 302.288 217.905C302.286 217.915 302.284 217.926 302.282 217.936C301.927 219.665 301.005 221.114 299.771 222.195C298.22 223.551 296.175 224.328 294.138 224.346C292.83 224.359 291.524 224.059 290.352 223.4C290.465 223.424 299.618 225.352 302.115 218.037C302.17 217.997 302.225 217.955 302.28 217.914V217.912Z" fill="#F39200"/>
<path d="M301.252 222.124C299.199 225.68 294.667 227.719 290.726 226.245C290.309 226.19 289.777 225.682 290.382 225.444C295.599 224.555 299.299 221.597 302.376 217.134C302.544 218.86 302.117 220.656 301.252 222.124Z" fill="#F9B233"/>
<path d="M301.251 222.125C300.013 224.249 297.912 225.842 295.559 226.453C294.244 226.796 292.853 226.831 291.49 226.481C291.49 226.481 300.044 226.573 302.233 217.438L302.404 217.586C302.404 217.586 302.404 217.59 302.404 217.593C302.406 217.637 302.406 217.679 302.408 217.723C302.408 217.827 302.408 217.929 302.408 218.033C302.404 218.313 302.384 218.588 302.351 218.86C302.213 220.033 301.823 221.138 301.249 222.127L301.251 222.125Z" fill="#F39200"/>
<path d="M302.421 221.903C301.417 226.38 296.796 229.844 292.193 228.77C291.75 228.586 292.151 228.229 292.447 228.166C297.375 226.12 300.295 222.306 302.232 217.432C302.232 217.432 302.232 217.43 302.232 217.429C302.714 218.886 302.758 220.474 302.419 221.903H302.421Z" fill="#F9B233"/>
<path d="M302.422 221.903C301.793 224.625 299.87 226.991 297.38 228.168C296.175 228.739 294.834 229.03 293.445 228.947C293.572 228.91 302.707 226.455 302.299 217.637C302.299 217.637 302.332 217.744 302.374 217.894C302.385 217.94 302.398 217.988 302.409 218.034C302.731 219.345 302.711 220.663 302.422 221.906V221.903Z" fill="#F39200"/>
<path d="M300.951 228.133C299.722 229.4 298.127 230.302 296.309 230.582C295.868 230.676 294.098 230.864 295.099 230.083C299.51 227.061 301.618 222.619 302.459 217.465C304.527 220.967 303.596 225.431 300.951 228.133Z" fill="#F9B233"/>
<path d="M300.951 228.133C299.722 229.4 298.127 230.302 296.309 230.582C296.309 230.582 304.275 227.835 302.448 217.52C302.452 217.502 302.457 217.485 302.459 217.465C302.54 217.606 302.619 217.748 302.689 217.891C304.464 221.376 303.478 225.527 300.949 228.133H300.951Z" fill="#F39200"/>
<path d="M299.93 231.827C295.496 233.547 304.107 229.028 302.233 217.427C306.666 221.525 305.323 229.446 299.93 231.827Z" fill="#F9B233"/>
<path d="M303.667 215.965C303.667 215.965 303.66 215.972 303.656 215.976C303.568 216.068 303.476 216.166 303.389 216.271C303.023 216.703 302.749 217.374 302.716 217.947L301.68 218.356C301.68 218.356 301.813 216.43 302.363 215.451C302.387 215.409 302.414 215.367 302.438 215.326C302.504 215.227 302.576 215.13 302.655 215.038C302.852 214.816 303.178 214.762 303.441 214.903L303.516 214.944C303.895 215.148 303.969 215.659 303.667 215.965Z" fill="#F9B233"/>
<path d="M303.667 215.965C303.667 215.965 303.66 215.972 303.656 215.976C303.568 216.068 303.476 216.166 303.389 216.271C302.964 216.008 302.626 215.727 302.363 215.451C302.387 215.409 302.414 215.367 302.438 215.326C302.504 215.227 302.574 215.13 302.655 215.038C302.852 214.816 303.178 214.762 303.441 214.903L303.516 214.944C303.895 215.148 303.969 215.659 303.667 215.965Z" fill="#F39200"/>
<path d="M290.723 226.243V226.245C290.587 226.195 290.449 226.14 290.313 226.081C290.015 225.95 290.061 225.512 290.381 225.446C290.458 225.429 290.534 225.414 290.609 225.396C290.609 225.396 291.016 225.7 290.723 226.243Z" fill="#F39200"/>
<path d="M292.668 228.86C292.511 228.833 292.353 228.805 292.193 228.77C291.961 228.72 291.93 228.4 292.145 228.304C292.248 228.258 292.349 228.212 292.447 228.166C292.447 228.166 292.977 228.151 292.668 228.86Z" fill="#F39200"/>
<path d="M295.484 230.665C295.341 230.674 295.196 230.676 295.052 230.676C294.813 230.676 294.714 230.372 294.905 230.229C294.971 230.181 295.037 230.133 295.1 230.085C295.1 230.085 295.534 230.14 295.484 230.665Z" fill="#F39200"/>
<path d="M299.308 232.074C299.179 232.12 299.047 232.162 298.913 232.201C298.686 232.269 298.504 232.004 298.646 231.816C298.71 231.735 298.771 231.654 298.83 231.571C298.83 231.571 299.341 231.615 299.308 232.074Z" fill="#F39200"/>
<path d="M289.682 222.973C289.549 222.879 289.415 222.777 289.284 222.667C289.03 222.459 289.196 222.046 289.525 222.076C289.628 222.083 289.731 222.092 289.831 222.1C289.831 222.1 290.211 222.44 289.682 222.976V222.973Z" fill="#F39200"/>
<path d="M299.93 231.827H299.928C307.366 225.63 302.717 217.947 302.717 217.947L302.734 217.941C306.591 222.223 305.075 229.533 299.93 231.827Z" fill="#F39200"/>
<path d="M278.99 234.993C280.305 240.175 286.957 242.7 291.398 239.847C291.977 239.575 293.368 238.313 291.845 238.503C286.731 239.269 283.134 237.82 278.99 234.993Z" fill="#F9B233"/>
<path d="M278.999 235C278.999 235 278.994 234.995 278.992 234.993C278.994 235.002 278.997 235.013 278.999 235.024C279.463 236.752 280.48 238.164 281.797 239.186C283.444 240.466 285.561 241.131 287.625 241.028C288.948 240.962 290.252 240.582 291.4 239.849C291.286 239.882 282.139 242.372 279.176 235.116C279.117 235.079 279.06 235.039 279.001 235.002L278.999 235Z" fill="#F39200"/>
<path d="M280.29 239.201C282.578 242.68 287.284 244.474 291.189 242.748C291.605 242.669 292.113 242.124 291.489 241.919C286.154 241.328 282.236 238.551 278.855 234.216C278.787 235.973 279.326 237.766 280.29 239.201Z" fill="#F9B233"/>
<path d="M280.289 239.201C281.667 241.28 283.889 242.768 286.303 243.247C287.655 243.516 289.066 243.47 290.425 243.035C290.425 243.035 281.772 243.634 279.014 234.516L278.852 234.678C278.852 234.678 278.852 234.682 278.852 234.685C278.852 234.728 278.854 234.772 278.854 234.816C278.858 234.921 278.865 235.024 278.873 235.131C278.893 235.413 278.928 235.691 278.979 235.965C279.189 237.144 279.647 238.236 280.287 239.205L280.289 239.201Z" fill="#F39200"/>
<path d="M279.089 239.048C280.277 243.091 284.326 246.159 288.596 245.643C289.124 245.619 290.881 245.277 289.558 244.794C284.448 243.017 281.265 239.328 279.015 234.509C279.015 234.509 279.015 234.507 279.012 234.505C278.611 236.008 278.662 237.621 279.089 239.045V239.048Z" fill="#F9B233"/>
<path d="M279.09 239.048C279.89 241.765 281.978 244.045 284.565 245.089C285.821 245.595 287.192 245.811 288.595 245.645C288.461 245.614 279.07 243.669 278.961 234.722C278.961 234.722 278.934 234.831 278.901 234.984C278.895 235.032 278.884 235.083 278.875 235.129C278.627 236.474 278.726 237.807 279.09 239.048Z" fill="#F39200"/>
<path d="M280.949 245.267C282.268 246.477 283.938 247.295 285.794 247.47C286.243 247.54 288.046 247.628 286.988 246.895C282.347 244.096 279.948 239.726 278.791 234.56C276.907 238.225 278.112 242.689 280.952 245.269L280.949 245.267Z" fill="#F9B233"/>
<path d="M280.95 245.266C282.269 246.477 283.939 247.295 285.795 247.47C285.795 247.47 277.567 245.164 278.805 234.612C278.801 234.595 278.796 234.577 278.792 234.558C278.718 234.706 278.647 234.853 278.584 235.002C276.993 238.634 278.238 242.779 280.952 245.264L280.95 245.266Z" fill="#F39200"/>
<path d="M282.201 248.945C286.794 250.419 277.815 246.378 279.017 234.505C274.773 238.914 276.603 246.855 282.201 248.945Z" fill="#F9B233"/>
<path d="M277.479 233.109C277.479 233.109 277.487 233.118 277.489 233.122C277.586 233.207 277.682 233.301 277.779 233.404C278.171 233.82 278.489 234.483 278.557 235.063L279.63 235.415C279.63 235.415 279.38 233.474 278.767 232.514C278.741 232.474 278.712 232.431 278.684 232.391C278.614 232.295 278.535 232.201 278.447 232.113C278.234 231.901 277.901 231.866 277.645 232.024L277.573 232.069C277.2 232.297 277.154 232.82 277.479 233.111V233.109Z" fill="#F9B233"/>
<path d="M277.479 233.109C277.479 233.109 277.488 233.118 277.49 233.122C277.587 233.207 277.683 233.301 277.78 233.404C278.194 233.113 278.516 232.809 278.766 232.514C278.739 232.474 278.711 232.431 278.682 232.391C278.612 232.295 278.533 232.201 278.446 232.113C278.235 231.901 277.9 231.866 277.644 232.024L277.571 232.069C277.199 232.297 277.155 232.82 277.479 233.111V233.109Z" fill="#F39200"/>
<path d="M291.187 242.746V242.748C291.323 242.689 291.459 242.626 291.593 242.558C291.889 242.409 291.814 241.967 291.488 241.919C291.409 241.908 291.332 241.897 291.253 241.884C291.253 241.884 290.859 242.216 291.187 242.748V242.746Z" fill="#F39200"/>
<path d="M289.373 245.511C289.533 245.476 289.691 245.437 289.849 245.391C290.079 245.325 290.094 245.002 289.87 244.916C289.763 244.877 289.658 244.837 289.557 244.796C289.557 244.796 289.02 244.813 289.375 245.511H289.373Z" fill="#F39200"/>
<path d="M286.636 247.505C286.78 247.505 286.927 247.498 287.072 247.49C287.313 247.474 287.396 247.161 287.194 247.03C287.124 246.984 287.054 246.94 286.986 246.895C286.986 246.895 286.552 246.978 286.636 247.505Z" fill="#F39200"/>
<path d="M282.845 249.157C282.978 249.196 283.114 249.231 283.252 249.262C283.487 249.317 283.657 249.039 283.5 248.855C283.432 248.776 283.364 248.697 283.3 248.619C283.3 248.619 282.785 248.693 282.845 249.157Z" fill="#F39200"/>
<path d="M292.046 239.378C292.18 239.273 292.307 239.162 292.434 239.043C292.677 238.816 292.487 238.409 292.156 238.457C292.051 238.472 291.95 238.488 291.847 238.501C291.847 238.501 291.481 238.868 292.046 239.378Z" fill="#F39200"/>
<path d="M282.2 248.945H282.202C274.306 243.111 278.556 235.061 278.556 235.061L278.539 235.054C274.891 239.617 276.858 246.927 282.2 248.945Z" fill="#F39200"/>
<path d="M293.005 229.768C300.247 227.794 287.92 230.608 284.178 219.851C284.145 219.864 284.351 217.533 283.446 217.524C282.696 217.822 283.836 219.151 283.641 219.95C282.585 226.879 287.536 230.794 293.005 229.768Z" fill="#F9B233"/>
<path d="M294.538 229.352C294.683 229.3 294.83 229.245 294.974 229.186C295.329 229.041 295.355 228.724 295.025 228.676C294.926 228.661 294.83 228.645 294.731 228.628C294.606 228.825 294.51 229.074 294.538 229.352Z" fill="#F39200"/>
<path d="M293.004 229.768C284.578 229.241 283.64 219.95 283.64 219.95C282.582 226.88 287.533 230.794 293.004 229.768Z" fill="#F39200"/>
<path d="M288.761 232.225C296.506 232.857 281.949 230.65 283.859 218.836C283.925 218.345 284.076 217.739 283.579 217.562C283.344 217.513 283.246 217.647 283.202 217.883C283.108 218.402 283.283 219.437 282.893 220.087C279.812 225.897 282.028 231.52 288.761 232.223V232.225Z" fill="#F9B233"/>
<path d="M288.761 232.225C279.777 230.061 282.893 220.087 282.893 220.087C282.74 220.389 282.602 220.689 282.475 220.985C279.968 226.831 282.51 231.461 288.761 232.227V232.225Z" fill="#F39200"/>
<path d="M290.258 232.332C290.411 232.33 290.567 232.326 290.722 232.317C291.104 232.295 291.233 232.004 290.937 231.851C290.847 231.803 290.76 231.757 290.674 231.711C290.492 231.858 290.319 232.061 290.258 232.332Z" fill="#F39200"/>
<path d="M284.542 233.468C291.606 236.015 279.906 231.253 283.039 220.286C283.006 220.277 284.518 218.489 283.784 217.962C282.997 217.774 283.164 219.516 282.544 220.059C277.686 225.118 279.478 231.164 284.542 233.47V233.468Z" fill="#F9B233"/>
<path d="M286.039 234.011C286.186 234.052 286.337 234.092 286.49 234.127C286.863 234.212 287.067 233.969 286.826 233.737C286.753 233.669 286.683 233.602 286.613 233.529C286.398 233.619 286.175 233.766 286.039 234.011Z" fill="#F39200"/>
<path d="M284.542 233.468C277.956 228.194 282.544 220.057 282.544 220.057C277.686 225.116 279.478 231.164 284.542 233.468Z" fill="#F39200"/>
<path d="M279.656 233.039C285.614 238.009 275.004 227.801 283.366 219.271C283.703 218.91 284.176 218.499 283.869 218.07C283.707 217.894 283.55 217.947 283.379 218.116C283.002 218.487 282.546 219.433 281.854 219.742C275.986 222.722 274.557 228.595 279.656 233.039Z" fill="#F9B233"/>
<path d="M279.657 233.039C273.559 226.105 281.854 219.742 281.854 219.742C281.556 219.899 281.269 220.063 280.995 220.234C275.577 223.573 274.985 228.82 279.657 233.039Z" fill="#F39200"/>
<path d="M284.137 218.7C284.137 218.7 283.181 218.8 283.166 218.362C283.166 218.362 282.997 217.524 283.444 217.524C283.968 217.524 284.268 218.29 284.137 218.7Z" fill="#F39200"/>
<path d="M314.558 240.604H200.285V275.791H314.558V240.604Z" fill="#D3774F"/>
<path d="M314.558 258.301H200.285V260.629H314.558V258.301Z" fill="#B55A3A"/>
<path d="M314.558 249.382H200.285V251.711H314.558V249.382Z" fill="#B55A3A"/>
<path d="M314.558 266.463H200.285V268.792H314.558V266.463Z" fill="#B55A3A"/>
<path d="M200.287 184.504H212.982C212.982 188.182 210.141 191.161 206.635 191.161C203.127 191.161 200.285 188.182 200.285 184.504H200.287Z" fill="#CE3932"/>
<path d="M212.982 184.504H225.68C225.68 188.182 222.836 191.161 219.33 191.161C215.824 191.161 212.982 188.182 212.982 184.504Z" fill="#D1A68F"/>
<path d="M225.68 184.504H238.375C238.375 188.182 235.533 191.161 232.027 191.161C228.52 191.161 225.678 188.182 225.678 184.504H225.68Z" fill="#CE3932"/>
<path d="M238.375 184.504H251.072C251.072 188.182 248.23 191.161 244.723 191.161C241.217 191.161 238.375 188.182 238.375 184.504Z" fill="#D1A68F"/>
<path d="M251.074 184.504H263.772C263.772 188.182 260.928 191.161 257.422 191.161C253.916 191.161 251.072 188.182 251.072 184.504H251.074Z" fill="#CE3932"/>
<path d="M263.772 184.504H276.467C276.467 188.182 273.625 191.161 270.119 191.161C266.611 191.161 263.77 188.182 263.77 184.504H263.772Z" fill="#D1A68F"/>
<path d="M276.467 184.504H289.164C289.164 188.182 286.322 191.161 282.814 191.161C279.309 191.161 276.467 188.182 276.467 184.504Z" fill="#CE3932"/>
<path d="M289.164 184.504H301.859C301.859 188.182 299.018 191.161 295.512 191.161C292.006 191.161 289.162 188.182 289.162 184.504H289.164Z" fill="#D1A68F"/>
<path d="M314.559 184.504C314.559 188.182 311.717 191.161 308.209 191.161C304.701 191.161 301.859 188.182 301.859 184.504H314.559Z" fill="#CE3932"/>
<path d="M284.611 236.392C279.282 232.293 288.598 238.805 295.338 231.197C295.36 231.219 295.991 229.214 296.745 229.516C297.249 230.063 295.87 230.709 295.75 231.462C294.245 237.569 288.793 239.116 284.613 236.389L284.611 236.392Z" fill="#F9B233"/>
<path d="M283.483 235.521C283.38 235.429 283.277 235.332 283.178 235.234C282.933 234.993 283.02 234.722 283.312 234.792C283.399 234.814 283.485 234.836 283.572 234.855C283.607 235.059 283.603 235.3 283.483 235.521Z" fill="#F39200"/>
<path d="M284.611 236.391C291.778 238.844 295.749 231.461 295.749 231.461C294.243 237.569 288.792 239.118 284.611 236.391Z" fill="#F39200"/>
<path d="M287.285 239.884C280.661 237.779 293.531 240.851 295.952 230.464C296.016 230.144 296.115 229.834 296.264 229.654C296.467 229.365 296.96 229.501 296.822 229.897C296.722 230.361 296.22 231.16 296.323 231.831C296.879 237.704 293.108 241.606 287.285 239.882V239.884Z" fill="#F9B233"/>
<path d="M287.283 239.883C295.476 241.168 296.321 231.831 296.321 231.831C296.343 232.135 296.356 232.431 296.361 232.719C296.429 238.424 292.73 241.393 287.283 239.883Z" fill="#F39200"/>
<path d="M286.007 239.459C285.882 239.404 285.753 239.347 285.626 239.286C285.317 239.137 285.313 238.853 285.611 238.827C285.698 238.818 285.788 238.811 285.876 238.8C285.977 238.984 286.049 239.214 286.007 239.461V239.459Z" fill="#F39200"/>
<path d="M296.121 229.75C296.121 229.75 296.452 230.221 296.789 230.022C296.789 230.022 297.024 229.722 296.805 229.556C296.588 229.389 296.369 229.453 296.121 229.748V229.75Z" fill="#F39200"/>
<path d="M296.688 237.77C290.698 236.03 300.968 238.494 304.206 229.659C304.232 229.669 304.099 227.724 304.852 227.733C305.472 228.035 304.497 229.057 304.649 229.75C305.415 235.538 301.226 238.715 296.688 237.77Z" fill="#F9B233"/>
<path d="M295.417 237.398C295.299 237.352 295.178 237.304 295.058 237.252C294.766 237.127 294.749 236.864 295.025 236.827C295.106 236.816 295.189 236.805 295.268 236.792C295.369 236.958 295.446 237.166 295.417 237.398Z" fill="#F39200"/>
<path d="M296.688 237.77C303.712 237.47 304.648 229.748 304.648 229.748C305.415 235.538 301.225 238.715 296.688 237.77Z" fill="#F39200"/>
<path d="M300.182 239.884C293.758 240.31 305.929 238.562 304.488 228.816C304.44 228.407 304.326 227.899 304.742 227.759C304.939 227.722 305.018 227.836 305.051 228.035C305.005 228.774 305.152 229.892 305.605 230.628C307.597 235.538 305.404 239.35 300.184 239.884H300.182Z" fill="#F9B233"/>
<path d="M300.182 239.883C307.699 238.231 305.269 229.873 305.269 229.873C305.392 230.129 305.504 230.38 305.605 230.627C307.594 235.538 305.401 239.349 300.182 239.883Z" fill="#F39200"/>
<path d="M298.935 239.949C298.808 239.945 298.677 239.939 298.547 239.928C298.23 239.904 298.129 239.658 298.379 239.536C298.453 239.499 298.525 239.462 298.6 239.424C298.749 239.547 298.889 239.722 298.935 239.949Z" fill="#F39200"/>
<path d="M304.395 228.144C304.395 228.144 304.837 228.437 305.065 228.151C305.065 228.151 305.166 227.814 304.92 227.744C304.675 227.676 304.508 227.803 304.395 228.144Z" fill="#F39200"/>
<path d="M200.285 240.604L201.151 238.376L313.666 238.315L314.558 240.604H200.285Z" fill="#B55A3A"/>
<path d="M224.464 230.249C224.368 230.249 224.275 230.201 224.223 230.116C224.137 229.982 224.177 229.805 224.311 229.72C224.405 229.663 226.587 228.302 228.211 228.993C228.355 229.055 228.423 229.223 228.362 229.367C228.3 229.512 228.132 229.58 227.985 229.518C226.64 228.943 224.637 230.19 224.617 230.203C224.569 230.234 224.519 230.249 224.464 230.249Z" fill="#D67513"/>
<path d="M229.023 223.534C228.92 223.534 228.822 223.479 228.769 223.383C227.641 221.276 225.476 219.969 225.452 219.956C225.316 219.875 225.272 219.7 225.353 219.565C225.432 219.429 225.61 219.383 225.745 219.464C225.84 219.521 228.068 220.86 229.275 223.112C229.35 223.252 229.297 223.424 229.157 223.499C229.113 223.523 229.067 223.534 229.021 223.534H229.023Z" fill="#D67513"/>
<path d="M226 233.881C225.945 233.881 225.892 233.868 225.844 233.838C223.079 232.07 220.277 232.481 220.248 232.485C220.093 232.509 219.946 232.402 219.919 232.247C219.895 232.089 220.001 231.945 220.158 231.919C220.279 231.899 223.197 231.466 226.151 233.356C226.285 233.442 226.324 233.617 226.238 233.75C226.184 233.835 226.092 233.881 225.997 233.881H226Z" fill="#D67513"/>
<path d="M236.971 234.137C236.863 234.137 236.76 234.076 236.712 233.973C235.426 231.234 234.133 230.199 234.12 230.19C233.995 230.094 233.973 229.912 234.07 229.789C234.168 229.665 234.346 229.643 234.471 229.739C234.528 229.783 235.88 230.853 237.231 233.73C237.299 233.875 237.236 234.043 237.093 234.111C237.054 234.129 237.012 234.137 236.973 234.137H236.971Z" fill="#D67513"/>
<path d="M210.464 151.774H208.133V220.632H210.464V151.774Z" fill="#B55A3A"/>
<path d="M340.386 259.58C340.386 259.58 337.345 256.035 340.197 253.785C340.197 253.785 342.283 252.525 343.984 252.626C343.984 252.626 341.573 256.658 342.353 257.061C343.133 257.461 344.713 252.372 344.713 252.372C344.713 252.372 349.455 251.914 350.982 252.645C350.982 252.645 346.926 255.96 347.781 256.157C348.635 256.354 353.015 253.1 353.015 253.1C353.015 253.1 357.43 253.851 357.193 256.54C356.959 259.232 355.438 260.061 354.768 259.989C354.1 259.919 350.189 258.426 350.103 258.973C350.018 259.52 352.373 261.308 354.021 261.394C354.021 261.394 350.91 264.82 348.841 263.831C346.771 262.842 346.595 261.273 345.305 260.685C344.016 260.096 342.914 260.098 343.447 260.698C343.981 261.297 346.315 261.882 347.051 263.183C347.789 264.488 348.451 265.365 346.31 265.043C344.17 264.722 340.69 263.157 340.537 261.367L340.386 259.575V259.58Z" fill="#82B378"/>
<path d="M355.024 256.614C355.024 256.614 343.035 256.155 340.386 259.579C340.386 259.579 339.801 261.33 337.997 262.925L337.717 263.689C337.717 263.689 339.794 261.5 340.539 261.369C340.539 261.369 339.375 257.126 355.024 256.614Z" fill="#82B378"/>
<path d="M338 262.925C338 262.925 335.426 264.826 335.246 268.222L335.713 268.264C335.713 268.264 336.537 264.752 338.02 263.378C339.506 262.004 337.998 262.925 337.998 262.925H338Z" fill="#82B378"/>
<path d="M329.753 255.122C329.753 255.122 334.591 252.417 332.334 248.746C332.334 248.746 330.529 246.492 328.592 245.912C328.592 245.912 329.624 251.387 328.592 251.516C327.56 251.645 327.882 245.332 327.882 245.332C327.882 245.332 322.785 242.883 320.785 243.078C320.785 243.078 323.947 248.424 322.915 248.295C321.883 248.168 318.335 242.754 318.335 242.754C318.335 242.754 313.11 241.789 312.273 244.881C311.434 247.973 312.788 249.52 313.563 249.713C314.337 249.905 319.304 249.84 319.175 250.485C319.045 251.128 315.691 252.161 313.82 251.581C313.82 251.581 315.886 256.669 318.594 256.411C321.302 256.155 322.141 254.479 323.817 254.352C325.496 254.222 326.721 254.673 325.881 255.124C325.044 255.575 322.205 255.271 320.851 256.422C319.497 257.573 318.399 258.279 320.914 258.796C323.432 259.31 327.945 258.988 328.85 257.056L329.753 255.124V255.122Z" fill="#A8D29F"/>
<path d="M314.66 245.846C314.66 245.846 328.205 250.227 329.752 255.122C329.752 255.122 329.689 257.312 331.043 259.824V260.791C331.043 260.791 329.625 257.507 328.85 257.056C328.85 257.056 331.882 252.805 314.66 245.846Z" fill="#82B378"/>
<path d="M331.044 259.825C331.044 259.825 333.132 262.993 331.942 266.851L331.405 266.706C331.405 266.706 331.927 262.457 330.833 260.321C329.74 258.186 331.044 259.825 331.044 259.825Z" fill="#82B378"/>
<path d="M337.449 251.391C337.449 251.391 331.073 247.827 334.049 242.984C334.049 242.984 336.428 240.013 338.981 239.249C338.981 239.249 337.62 246.468 338.981 246.636C340.342 246.807 339.917 238.485 339.917 238.485C339.917 238.485 346.632 235.258 349.268 235.512C349.268 235.512 345.103 242.56 346.464 242.389C347.822 242.221 352.5 235.087 352.5 235.087C352.5 235.087 359.389 233.814 360.493 237.89C361.599 241.967 359.814 244.004 358.793 244.258C357.772 244.514 351.225 244.429 351.396 245.278C351.564 246.127 355.986 247.485 358.453 246.722C358.453 246.722 355.732 253.428 352.16 253.089C348.589 252.75 347.485 250.542 345.272 250.372C343.063 250.201 341.446 250.796 342.55 251.391C343.657 251.984 347.399 251.586 349.183 253.1C350.968 254.617 352.414 255.551 349.097 256.231C345.782 256.91 339.829 256.485 338.639 253.938L337.449 251.391Z" fill="#A8D29F"/>
<path d="M357.345 239.164C357.345 239.164 339.49 244.936 337.451 251.391C337.451 251.391 337.534 254.277 335.748 257.59V258.864C335.748 258.864 337.619 254.533 338.64 253.938C338.64 253.938 334.644 248.334 357.345 239.162V239.164Z" fill="#82B378"/>
<path d="M335.75 257.59C335.75 257.59 332.996 261.767 334.565 266.85L335.275 266.66C335.275 266.66 334.587 261.061 336.027 258.244C337.468 255.428 335.75 257.59 335.75 257.59Z" fill="#82B378"/>
<path d="M337.236 277.872C344.133 277.872 349.727 272.288 349.727 265.397H324.742C324.742 272.288 330.336 277.872 337.236 277.872Z" fill="#F1A34F"/>
<path d="M340.31 277.778C339.802 277.839 339.283 277.872 338.757 277.872C331.859 277.872 326.268 272.288 326.268 265.397H329.37C329.37 271.763 334.144 277.014 340.31 277.778Z" fill="#FFB973"/>
<path d="M349.899 278.509H324.57C324.57 277.658 325.26 276.969 326.111 276.969H348.357C349.209 276.969 349.897 277.658 349.897 278.509H349.899Z" fill="#F1A34F"/>
<path d="M350.009 265.397H324.332V265.78H350.009V265.397Z" fill="#D86713"/>
<path d="M227.791 261.081L229.114 278.516H210.113C210.113 278.516 210.974 275.855 213.115 275.107C215.256 274.356 219.71 274.84 220.957 269.798C221.697 266.954 222.037 264.019 221.969 261.081H227.791Z" fill="#F9B384"/>
<path d="M244.811 260.059L246.261 278.516H260.766C260.766 278.516 259.92 275.306 257.863 274.715C255.722 274.085 253.906 272.656 252.788 270.726C251.458 268.603 249.903 260.059 249.903 260.059H244.811Z" fill="#F9B384"/>
<path d="M220.143 152.592C220.143 152.592 210.851 163.28 212.249 181.838C213.649 200.396 220.143 223.4 220.143 232.746C220.143 242.092 221.024 262.059 221.024 262.059H228.666C228.666 262.059 231.346 234.402 230.007 229.275C228.666 224.151 230.007 174.635 230.007 174.635C230.007 174.635 237.915 223.899 238.936 227.939C239.955 231.978 244.105 262.059 244.105 262.059L251.364 261.325C251.364 261.325 251.337 233.501 248.649 224.772C245.958 216.043 246.39 206.602 246.39 203.751C246.39 200.9 251.162 176.968 247.742 165.779C244.319 154.589 238.936 152.592 238.936 152.592H220.143Z" fill="#1F3C88"/>
<path d="M241.23 157.394L241.797 159.206L242.251 160.699L242.599 161.886L243.075 163.569L243.491 165.13L243.732 166.099L243.947 167.011C243.98 167.158 244.01 167.303 244.043 167.445L244.212 168.267C244.392 169.189 244.51 169.986 244.563 170.645L244.604 171.499L244.644 172.916L244.733 180.121L244.854 193.568L244.939 200.085L245.062 206.327L245.137 209.018L245.218 211.416L245.307 213.518L245.408 215.321L245.496 216.546L245.588 217.576L245.662 218.219L245.715 218.585L245.768 218.901L245.825 219.168L245.882 219.385C246.326 220.851 246.747 222.612 247.139 224.639L247.374 225.888L247.599 227.197L247.821 228.569L248.035 230C248.07 230.242 248.105 230.49 248.141 230.737L248.346 232.256C248.379 232.514 248.414 232.774 248.447 233.035L248.644 234.639L248.835 236.295L249.019 238.004C249.558 243.133 249.99 248.63 250.325 254.124L250.485 256.899L250.704 261.452L249.861 261.483L249.771 259.474L249.641 256.945L249.481 254.174C249.148 248.691 248.719 243.207 248.18 238.091L247.996 236.393C247.965 236.113 247.935 235.838 247.902 235.564L247.711 233.945L247.512 232.38C247.479 232.124 247.444 231.87 247.411 231.619L247.203 230.14L246.99 228.72L246.771 227.358C246.697 226.914 246.622 226.481 246.548 226.059L246.315 224.822C245.965 223.015 245.595 221.424 245.204 220.072L245.042 219.52L244.983 219.269L244.926 218.967L244.869 218.616L244.79 218L244.738 217.528L244.665 216.73L244.576 215.496L244.492 214.071L244.416 212.453L244.295 209.163L244.168 204.079L244.065 198.041L243.962 188.755L243.839 175.305L243.785 172.274L243.756 171.379L243.736 170.963C243.728 170.793 243.715 170.612 243.695 170.42L243.62 169.809L243.513 169.131L243.375 168.388C243.351 168.26 243.325 168.128 243.296 167.993L243.114 167.157L242.904 166.26L242.665 165.305L242.398 164.293L242.104 163.226L241.784 162.106L241.258 160.33L240.991 159.454L240.426 157.649L241.23 157.394Z" fill="#345ABE"/>
<path opacity="0.335" d="M230.006 174.638L223.096 173.038L229.807 180.515L230.006 174.638Z" fill="url(#paint10_linear_255_36299)"/>
<path d="M226.883 174.112L227.726 174.137L227.588 179.244L227.49 183.292L227.356 189.331L227.255 194.6L227.172 199.701L227.122 203.687L227.08 208.086L227.063 212.114L227.074 216.655L227.109 219.645L227.166 222.227L227.216 223.713L227.277 225.004L227.31 225.575L227.367 226.337L227.431 226.98L227.499 227.505L227.547 227.787C227.556 227.829 227.564 227.871 227.573 227.908L227.626 228.107C227.634 228.135 227.645 228.162 227.654 228.186L227.683 228.251C227.711 228.31 227.74 228.38 227.768 228.459L227.849 228.722C227.862 228.77 227.875 228.822 227.886 228.875L227.959 229.219L228.024 229.617C228.035 229.687 228.044 229.759 228.055 229.833L228.112 230.31L228.165 230.838L228.211 231.415L228.27 232.378L228.303 233.081L228.342 234.225L228.368 235.479L228.388 237.315L228.39 239.33L228.373 241.525L228.314 245.137L228.281 246.562L228.204 249.487L228.11 252.498L227.946 257.004L227.724 262.08L226.883 262.039L227.025 258.853L227.214 253.997L227.317 250.958L227.402 247.991C227.415 247.503 227.426 247.021 227.437 246.542L227.503 243.238L227.536 240.593L227.545 238.951L227.54 236.919L227.523 235.455L227.503 234.547L227.466 233.295L227.415 232.175L227.352 231.19L227.301 230.612L227.247 230.1L227.185 229.654C227.122 229.24 227.049 228.925 226.968 228.72L226.927 228.626C226.903 228.58 226.881 228.523 226.859 228.459L226.795 228.238L226.736 227.96L226.681 227.63L226.627 227.245L226.554 226.566L226.488 225.77L226.449 225.173L226.366 223.457L226.311 221.858L226.269 220.059L226.234 217.538L226.223 215.883L226.217 214.123L226.221 210.351L226.252 206.048L226.307 201.345L226.381 196.308L226.478 191.087L226.613 184.67L226.811 176.725L226.883 174.112Z" fill="#345ABE"/>
<path d="M239.194 151.683C239.38 152.145 239.571 152.626 239.764 153.126H219.801L220.099 152.403L220.401 151.683H239.194Z" fill="url(#paint11_linear_255_36299)"/>
<path d="M227.253 151.125H228.587C229.323 151.125 229.921 151.723 229.921 152.459C229.921 153.196 229.323 153.793 228.587 153.793H227.253C226.514 153.793 225.916 153.196 225.916 152.459C225.916 151.723 226.514 151.125 227.253 151.125Z" fill="url(#paint12_linear_255_36299)"/>
<path d="M220.147 151.683C220.147 151.683 220.778 151.213 217.235 138.454C214.996 130.389 217.235 116.114 217.235 116.114H242.908C242.908 116.114 243.005 130.885 242.49 136.637C241.975 142.389 238.936 151.683 238.936 151.683H220.147Z" fill="url(#paint13_linear_255_36299)"/>
<path d="M237.267 94.5542C237.267 94.5542 244.614 102.433 241.877 109.419C240.254 113.814 239.96 118.59 241.034 123.15C241.034 123.15 236.222 120.391 234.559 116.923C231.689 110.948 237.267 94.5542 237.267 94.5542Z" fill="#102048"/>
<path d="M218.39 102.963C218.39 102.963 214.562 98.8858 216.635 94.6935C218.708 90.5012 224.44 90.6412 224.44 90.6412C224.44 90.6412 230.52 87.3253 234.573 90.6412C242.82 97.3906 231.913 110.458 231.913 110.458L218.39 102.963Z" fill="#102048"/>
<path d="M225.038 116.489V112.454C223.211 112.371 221.533 111.418 220.525 109.892C218.671 107.253 219.16 100.379 219.16 100.379C220.724 100.181 222.234 99.6734 223.601 98.8861C224.677 98.2082 225.512 97.2074 225.983 96.0269C226.57 97.6647 227.378 99.2148 228.384 100.635C229.878 102.602 231.147 101.667 231.147 103.296V105.609L233.303 102.201C233.303 102.201 235.827 101.979 235.827 104.321C235.827 107.025 232.065 106.989 232.065 106.989L231.732 116.408C230.768 117.175 229.607 117.652 228.384 117.784C227.166 117.684 226.005 117.235 225.038 116.489Z" fill="#F9B384"/>
<path d="M231.983 106.986C231.983 106.986 230.627 112.444 225.037 113.184V112.455C226.527 112.378 227.958 111.852 229.143 110.947C230.142 110.216 231.109 108.683 231.983 106.986Z" fill="#F8A872"/>
<path d="M224.094 107.56C224.193 107.486 224.333 107.507 224.405 107.606C224.48 107.705 224.458 107.844 224.359 107.918C223.875 108.276 223.314 108.519 222.722 108.625C222.455 108.674 222.183 108.702 221.912 108.71C221.787 108.713 221.686 108.616 221.682 108.493C221.679 108.37 221.776 108.267 221.899 108.264C222.148 108.257 222.396 108.232 222.644 108.186C223.169 108.092 223.665 107.877 224.094 107.56Z" fill="#EE825D"/>
<path d="M223.392 109.045C223.5 108.984 223.636 109.021 223.697 109.129C223.756 109.236 223.719 109.372 223.611 109.432C223.498 109.497 223.375 109.545 223.235 109.577C223.107 109.599 222.98 109.599 222.853 109.577C222.733 109.556 222.65 109.441 222.671 109.32C222.691 109.198 222.807 109.117 222.93 109.138C223.005 109.151 223.083 109.151 223.147 109.14C223.232 109.12 223.316 109.088 223.392 109.045Z" fill="#EE825D"/>
<path d="M221.218 104.151C221.654 104.151 222.007 103.798 222.007 103.363C222.007 102.928 221.654 102.576 221.218 102.576C220.782 102.576 220.43 102.928 220.43 103.363C220.43 103.798 220.782 104.151 221.218 104.151Z" fill="#212237"/>
<path d="M221.096 100.226C221.315 100.245 221.525 100.314 221.711 100.43C221.85 100.516 221.893 100.699 221.808 100.839C221.72 100.978 221.536 101.021 221.398 100.935C221.291 100.869 221.17 100.829 221.096 100.818C220.971 100.829 220.85 100.869 220.743 100.935C220.603 101.021 220.421 100.978 220.333 100.839C220.248 100.699 220.289 100.516 220.43 100.43C220.616 100.314 220.826 100.245 221.096 100.226Z" fill="#212237"/>
<path d="M225.224 104.151C225.66 104.151 226.013 103.798 226.013 103.363C226.013 102.928 225.66 102.576 225.224 102.576C224.788 102.576 224.436 102.928 224.436 103.363C224.436 103.798 224.788 104.151 225.224 104.151Z" fill="#212237"/>
<path d="M225.249 100.639C225.466 100.658 225.676 100.728 225.863 100.843C226.003 100.929 226.047 101.112 225.959 101.252C225.874 101.391 225.69 101.435 225.549 101.348C225.442 101.282 225.321 101.242 225.249 101.231C225.124 101.242 225.004 101.282 224.896 101.348C224.756 101.435 224.572 101.391 224.487 101.252C224.399 101.112 224.443 100.929 224.583 100.843C224.769 100.728 224.98 100.658 225.249 100.639Z" fill="#212237"/>
<path fill-rule="evenodd" clip-rule="evenodd" d="M218.215 103.363C218.215 104.468 219.113 105.364 220.217 105.364C221.324 105.364 222.22 104.468 222.22 103.363C222.22 102.258 221.324 101.362 220.217 101.362C219.113 101.362 218.215 102.258 218.215 103.363ZM221.887 103.363C221.887 104.282 221.138 105.03 220.217 105.03C219.297 105.03 218.55 104.282 218.55 103.363C218.55 102.444 219.297 101.696 220.217 101.696C221.138 101.696 221.887 102.444 221.887 103.363Z" fill="white"/>
<path fill-rule="evenodd" clip-rule="evenodd" d="M223.217 103.363C223.217 104.468 224.113 105.364 225.219 105.364C226.324 105.364 227.22 104.468 227.22 103.363C227.22 102.258 226.324 101.362 225.219 101.362C224.113 101.362 223.217 102.258 223.217 103.363ZM226.887 103.363C226.887 104.282 226.137 105.03 225.219 105.03C224.299 105.03 223.55 104.282 223.55 103.363C223.55 102.444 224.299 101.696 225.219 101.696C226.137 101.696 226.887 102.444 226.887 103.363Z" fill="white"/>
<path d="M222.777 102.735C223.092 102.78 223.384 102.928 223.607 103.155C223.721 103.272 223.719 103.461 223.603 103.575C223.484 103.69 223.296 103.688 223.182 103.571C223.051 103.437 222.878 103.35 222.777 103.324C222.591 103.35 222.42 103.437 222.288 103.571C222.172 103.688 221.984 103.69 221.867 103.575C221.749 103.461 221.747 103.272 221.863 103.155C222.087 102.928 222.378 102.78 222.777 102.735Z" fill="white"/>
<path d="M232.876 102.014C233.039 101.989 233.19 102.1 233.216 102.262C233.236 102.398 233.163 102.525 233.043 102.579L232.966 102.601L227.177 103.492C227.013 103.517 226.862 103.405 226.838 103.243C226.816 103.108 226.89 102.98 227.009 102.927L227.085 102.904L232.876 102.014Z" fill="white"/>
<path d="M218.422 103.462H218.746" stroke="white" stroke-width="0.809656"/>
<path d="M222.977 103.966C223.089 104.015 223.142 104.146 223.093 104.259C222.863 104.786 222.579 105.287 222.232 105.764C222.094 105.933 222.066 106.195 222.16 106.377C222.248 106.548 222.41 106.599 222.668 106.476C222.78 106.422 222.914 106.469 222.966 106.58C223.021 106.691 222.973 106.824 222.861 106.878C222.388 107.104 221.961 106.97 221.761 106.58C221.615 106.289 221.625 105.915 221.788 105.628L221.88 105.492C222.197 105.052 222.467 104.579 222.684 104.082C222.723 103.991 222.815 103.94 222.907 103.948L222.977 103.966Z" fill="#EE825D"/>
<path d="M224.816 119.936C224.316 121.116 223.711 122.248 223.008 123.32L214.678 139.824C213.965 141.235 212.359 141.953 210.832 141.542L204.852 139.936C204.659 139.885 204.498 139.75 204.415 139.568C204.332 139.385 204.336 139.175 204.424 138.996L215.212 117.228C215.526 116.594 216.279 116.315 216.93 116.591L224.816 119.936Z" fill="#ED7545"/>
<path opacity="0.206" d="M216.001 119.767L214.443 139.982L216.573 135.864L216.001 119.767Z" fill="url(#paint14_linear_255_36299)"/>
<path d="M225.331 115.466V145.752C223.431 145.665 221.551 145.329 219.742 144.751C218.151 144.276 216.315 143.249 215.509 141.8L215.274 117.333C215.252 116.61 215.811 116.001 216.534 115.961L225.331 115.466Z" fill="#ED7545"/>
<path d="M231.74 115.47V145.756C233.89 145.668 236.022 145.331 238.094 144.75C240.068 144.099 241.902 143.081 243.5 141.749V116.031L231.74 115.47Z" fill="#ED7545"/>
<path d="M241.201 124.676V136.871L223.732 133.075L221.254 138.169L232.119 143.933L243.5 142.247V127.707L241.201 124.676Z" fill="#AB512D" fill-opacity="0.4"/>
<path d="M208.933 144.99L186.445 151.239L184.326 147.156L208.938 137.46C210.351 136.904 211.946 137.596 212.502 139.005C212.623 139.312 212.686 139.638 212.693 139.967C212.73 142.3 211.185 144.364 208.933 144.99Z" fill="#ED7545"/>
<path d="M187.574 150.682C187.574 150.682 182.088 153.222 180.74 153.252C179.392 153.282 173.147 151.684 173.48 150.948C173.812 150.212 179.942 151.715 179.942 151.715C179.942 151.715 183.417 151.508 182.659 150.048C181.901 148.587 178.706 149.64 178.287 149.109C177.868 148.579 178.946 147.925 180.404 147.537C182.137 147.229 183.889 147.041 185.648 146.975L187.574 150.682Z" fill="#F9B384"/>
<path d="M176.168 151.696C174.969 151.319 173.323 150.197 173.575 149.792C173.827 149.388 177.025 150.435 177.025 150.435L181.673 150.567L186.113 149.073L186.99 150.853C185.198 151.634 183.363 152.316 181.495 152.895C179.921 153.26 177.368 152.074 176.168 151.696Z" fill="#F9B384"/>
<path d="M204.105 185.569C206.227 166.289 207.911 158.357 208.771 155.259C209.693 151.338 212.782 145.658 212.024 137.03C211.391 129.831 213.766 126.845 214.579 126.047C217.451 120.754 222.331 115.612 222.331 115.612L224.007 115.513C218.63 121.912 218.586 125.618 218.586 125.618C222.955 125.5 228.978 125.778 232.052 126.16C233.319 120.334 234.853 115.612 234.853 115.612L236.529 115.71C236.435 123.113 235.679 126.707 235.679 126.707C238.26 127.17 237.96 127.599 237.96 127.599C239.417 137.686 241.634 155.286 241.634 155.286C241.838 155.262 242.057 155.23 242.252 155.206C242.252 155.206 242.988 156.027 243.567 156.848C244.176 157.712 244.815 158.817 244.815 158.817C243.779 159.297 242.861 159.607 242.861 159.607C243.166 162.827 243.661 205.002 241.264 216.947C240.913 218.691 240.503 219.79 240.021 220.029C236.231 221.908 204.247 221.541 203.947 219.033C203.888 218.54 203.764 217.801 203.62 216.765C203.038 212.543 202.151 203.376 204.109 185.567L204.105 185.569Z" fill="#5287D2"/>
<path d="M216.182 128.893C215.465 128.893 214.885 128.313 214.885 127.597C214.885 126.881 215.465 126.301 216.182 126.301C216.898 126.301 217.481 126.881 217.481 127.597C217.481 128.313 216.898 128.893 216.182 128.893Z" fill="#3867A9"/>
<path d="M229.869 128.609C229.869 129.324 230.452 129.905 231.166 129.905C231.883 129.905 232.466 129.324 232.466 128.609C232.466 127.894 231.883 127.313 231.166 127.313C230.452 127.313 229.869 127.894 229.869 128.609Z" fill="#3867A9"/>
<path d="M220.475 275.408C222.804 275.962 229.114 274.47 229.114 274.47L229.471 278.518H210.113C210.113 278.518 211.106 274.737 214.068 274.47C217.033 274.203 218.146 274.859 220.475 275.408Z" fill="#102048"/>
<path d="M254.583 274.881C259.991 273.199 261.126 278.776 261.126 278.776H245.883L245.65 275.816C245.65 275.816 251.045 275.984 254.583 274.881Z" fill="#102048"/>
<path d="M242.571 115.971C244.622 115.778 246.541 117.001 247.229 118.94L247.358 119.274C248.254 121.719 250.667 130.33 254.593 145.105C255.097 146.999 254.015 148.953 252.141 149.531L251.942 149.586C249.92 150.09 247.853 148.932 247.231 146.943L240.768 126.333L242.571 115.971Z" fill="#ED7545"/>
<path d="M226.489 148.787L226.931 145.488L225.862 145.036C224.951 144.63 224.019 144.274 223.068 143.969L222.97 143.947C221.506 143.679 219.455 141.176 218.811 141.334C218.382 141.44 218.688 142.543 219.729 144.643L218.903 144.73C218.903 144.73 216.969 145.047 216.971 145.036C216.346 145.651 217.435 146.707 217.435 146.707L219.865 149.521C220.187 149.893 220.687 150.059 221.167 149.953L226.489 148.787Z" fill="#F9B384"/>
<path d="M225.538 144.769L225.006 150.077L250.736 149.795C251.741 149.784 252.701 149.375 253.404 148.657C254.108 147.94 254.498 146.972 254.487 145.968C254.484 145.748 254.463 145.529 254.423 145.313C253.956 142.83 251.619 141.151 249.112 141.499L225.538 144.769Z" fill="#ED7545"/>
<path d="M107.64 258.365H113.305C113.305 258.365 111.245 268.661 111.245 270.943V278.372H91.2812C91.2812 278.372 92.5433 274.706 95.6748 273.829C98.8063 272.952 104.89 271.203 106.148 268.367C107.406 265.531 107.64 258.365 107.64 258.365Z" fill="#011E3B"/>
<path d="M135.838 259.03L135.997 278.371H154.684C154.45 277.048 153.767 275.844 152.748 274.962C150.932 273.201 140.431 272.503 140.431 268.702C140.551 265.459 140.884 262.229 141.429 259.03H135.838Z" fill="#011E3B"/>
<path d="M113.527 162.937H144.588L144.717 165.122C149.781 195.196 147.147 198.85 147.473 216.388C147.799 233.926 142.226 243.514 141.844 269.428H133.681L132.17 255.039C131.028 240.49 131.366 230.481 131.366 226.829C131.366 220.6 132.307 218.893 132.347 214.144V213.823C132.347 210.537 131.855 205.26 129.052 179.451C128.988 178.866 128.494 178.423 127.906 178.423H127.473C127.13 178.423 126.843 178.682 126.809 179.023L126.369 183.219C124.448 201.245 122.942 201.741 121.852 205.069C120.076 210.488 122.017 217.807 120.66 225.917L120.299 228.02C119.244 234.066 116.298 253.652 113.282 269.437L105.482 269.354L105.883 251.518C106.745 228.449 105.664 215.148 106.081 211.295L106.991 207.73C107.538 201.879 103.758 195.903 113.527 162.937Z" fill="#2C79E8"/>
<path opacity="0.335" d="M128.109 162.114H130.112V172.451C130.112 173.004 129.663 173.452 129.11 173.452C128.558 173.452 128.109 173.004 128.109 172.451V162.114Z" fill="#0F1D49"/>
<path d="M113.426 160.781H144.793V163.448H113.426V160.781Z" fill="#2C79E8"/>
<path d="M128.778 160.114H130.112C131.218 160.114 132.115 161.009 132.115 162.114C132.115 163.219 131.218 164.115 130.112 164.115H128.778C127.672 164.115 126.775 163.219 126.775 162.114C126.775 161.009 127.672 160.114 128.778 160.114Z" fill="#2C79E8"/>
<path d="M124.227 174.176L122.956 182.168C122.817 183.05 122.679 183.928 122.543 184.8L121.578 191.038L120.459 198.509L119.925 202.257L119.562 204.962L119.4 206.254L119.272 207.355L119.163 208.454L119.124 208.961L119.106 209.351L119.11 210.114L119.147 211.191L119.374 215.181L119.433 216.398C119.441 216.594 119.449 216.785 119.456 216.973L119.487 218.061L119.499 219.081L119.49 220.046C119.461 221.46 119.358 222.733 119.167 224.074L118.754 226.65L117.057 236.516L114.098 253.332L112.766 260.84L111.936 260.691L115.689 239.442L117.869 226.825L118.266 224.396L118.331 223.956L118.443 223.09C118.608 221.654 118.671 220.239 118.651 218.567L118.63 217.53L118.589 216.418L118.531 215.216L118.303 211.22L118.27 210.294L118.261 209.454L118.272 209.084L118.305 208.594L118.359 207.985L118.464 206.993L118.736 204.775L119.113 201.97L119.91 196.44L121.173 188.118L122.122 182.037C122.261 181.154 122.402 180.267 122.543 179.379L123.388 174.117L124.227 174.176Z" fill="#225AB3"/>
<path d="M132.363 174.235C132.884 178.871 133.271 182.343 133.522 184.65L134.015 189.238L134.605 194.906L135.1 199.88L135.457 203.703L135.706 206.567L135.898 209.036L136.031 211.093L136.097 212.482L136.118 213.375L136.116 213.913L136.097 214.337L136.076 214.556C135.967 215.389 135.842 216.188 135.683 217.085L135.067 220.398L134.92 221.274C134.834 221.823 134.772 222.313 134.728 222.788C134.695 223.138 134.673 223.475 134.663 223.81L134.655 224.39L134.701 225.768L134.803 227.884L135.136 233.926L135.711 243.634L136.768 260.737L135.926 260.79L135.595 255.516L134.237 232.996L133.867 226L133.815 224.606L133.811 224.304C133.811 223.786 133.836 223.258 133.887 222.711C133.933 222.217 133.997 221.713 134.086 221.149L134.26 220.118L134.728 217.626C134.946 216.446 135.105 215.472 135.239 214.447L135.259 214.239L135.272 213.978L135.277 213.666L135.273 213.1L135.242 212.17L135.202 211.342L135.124 210.072L134.926 207.401L134.653 204.187L134.196 199.302L133.556 192.952L133.054 188.181C132.689 184.766 132.304 181.265 131.915 177.791L131.516 174.293L132.363 174.235Z" fill="#225AB3"/>
<path d="M150.776 133.188L153.149 132.619C159.171 131.202 171.098 128.506 172.052 128.269C172.496 128.127 172.982 128.224 173.338 128.526L173.422 128.605C173.689 128.877 174.062 129.016 174.442 128.984L174.823 128.952C175.368 128.906 175.882 129.211 176.103 129.711L177.164 132.112C177.434 132.721 177.191 133.435 176.606 133.754L176.072 134.043C175.771 134.208 175.548 134.486 175.454 134.815L175.427 134.926C175.35 135.322 174.867 135.739 173.977 136.177L173.805 136.259C171.736 137.227 159.857 141.146 155.061 142.491C146.815 144.802 143.606 134.958 150.776 133.188Z" fill="#FE805D"/>
<path d="M143.913 109.675C141.145 110.409 139.489 113.24 140.209 116.011L146.004 138.343C146.76 141.254 149.451 143.241 152.458 143.107C153.723 143.05 154.895 142.428 155.65 141.413C156.406 140.399 156.665 139.098 156.356 137.872L150.182 113.363C149.508 110.691 146.835 109.034 144.14 109.62L143.913 109.675Z" fill="#FE805D"/>
<path opacity="0.175" d="M146.604 117.623L152.958 143.182H148.086L146.604 139.958V117.623Z" fill="#D95D3B"/>
<path d="M113.527 161.119V159.601L112.039 157.692C111.301 157.197 110.858 150.423 110.857 149.534V114.88C110.752 113.052 111.503 111.279 112.891 110.082C113.251 109.784 113.703 109.62 114.171 109.62H146.179C146.917 109.62 147.514 110.217 147.514 110.954V150.145C147.514 151.198 146.894 158.097 145.931 158.526L144.715 159.976L144.588 161.206L113.527 161.119Z" fill="url(#paint15_linear_255_36299)"/>
<path d="M113.527 161.119V159.601L112.039 157.692C111.301 157.197 110.858 150.423 110.857 149.534V114.88C110.752 113.052 111.503 111.279 112.891 110.082C113.251 109.784 113.703 109.62 114.171 109.62H146.179C146.917 109.62 147.514 110.217 147.514 110.954V150.145C147.514 151.198 146.894 158.097 145.931 158.526L144.715 159.976L144.588 161.206L113.527 161.119Z" fill="#FE805D"/>
<path opacity="0.175" d="M121.412 114.289L131.957 133.944L147.937 140.68L147.62 150.042C147.599 150.652 147.299 151.219 146.807 151.581C146.315 151.944 145.685 152.061 145.095 151.901L121.269 145.379C118.856 143.858 110.857 121.379 110.857 121.379V114.289L113.318 113.523L121.412 114.289Z" fill="#D95D3B"/>
<path d="M174.845 126.832C175.652 126.959 176.438 126.496 176.717 125.728L177.24 124.277C177.32 124.056 177.309 123.812 177.21 123.599C177.11 123.386 176.929 123.221 176.708 123.141C176.675 123.129 176.641 123.119 176.606 123.111C176.026 122.977 175.426 123.236 175.126 123.75L174.162 125.401C174.034 125.621 173.998 125.883 174.063 126.13C174.128 126.376 174.288 126.587 174.508 126.715C174.612 126.774 174.726 126.814 174.845 126.832Z" fill="#FFCBC2"/>
<path d="M187.471 142.98C187.264 144.006 186.954 144.986 186.489 145.914C186.385 146.116 186.334 146.326 186.23 146.482C185.868 147.201 185.455 147.874 184.989 148.489C184.782 148.75 184.628 148.953 184.421 149.214C183.231 150.554 181.784 151.684 180.181 152.508C179.871 152.665 179.561 152.815 179.251 152.92C178.733 153.129 178.217 153.331 177.648 153.488C175.579 154.109 173.305 154.207 171.03 153.743C163.482 152.201 158.673 144.829 160.224 137.359C161.776 129.837 169.169 125.047 176.666 126.589C179.302 127.158 181.732 128.445 183.696 130.354C187.006 133.647 188.453 138.392 187.471 142.98Z" fill="url(#paint16_linear_255_36299)"/>
<path d="M186.926 142.536C186.868 142.768 186.811 143 186.695 143.232C186.579 143.58 186.464 143.928 186.29 144.218C186.233 144.392 186.117 144.566 186.059 144.741C185.77 145.32 185.365 145.9 185.019 146.422C184.845 146.655 184.672 146.829 184.556 147.061C183.573 148.221 182.301 149.207 180.971 152.748C180.741 152.864 180.452 152.98 180.22 153.095C179.757 153.27 180.581 152.831 180.118 152.947C179.887 153.005 179.598 153.063 179.366 153.121L170.646 143.612L172.233 143.753L172.522 143.115L171.024 141.631C171.024 141.631 174.578 139.02 174.463 138.905C174.405 138.846 175.787 134.298 175.787 134.298L177.025 135.173L178.514 134.298L186.926 142.536Z" fill="url(#paint17_linear_255_36299)"/>
<path d="M176.77 147.782C173.191 143.706 171.401 141.638 171.401 141.578V141.559C172.192 141.559 173.021 141.358 173.886 140.954C174.35 140.774 174.835 140.379 175.342 139.771C175.725 139.169 175.936 138.654 175.973 138.227H177.623C177.636 138.227 177.926 137.811 178.495 136.98C178.495 136.962 178.48 136.95 178.449 136.944H175.908C175.79 136.408 175.568 135.954 175.24 135.58H177.623C177.691 135.526 177.988 135.105 178.514 134.316V134.298H169.593C169.574 134.298 169.281 134.71 168.712 135.535V135.58H171.067C171.463 135.58 171.908 135.659 172.403 135.815C173.095 136.08 173.562 136.451 173.803 136.926V136.944H169.593C169.581 136.944 169.281 137.36 168.693 138.191C168.693 138.215 168.706 138.227 168.731 138.227H174.035C174.035 138.419 173.997 138.606 173.923 138.787C173.447 140.021 172.233 140.638 170.279 140.638C169.865 140.638 169.503 140.617 169.194 140.575L169.176 140.62V141.821C169.176 141.84 170.919 143.826 174.406 147.782H176.77Z" fill="url(#paint18_linear_255_36299)"/>
<path fill-rule="evenodd" clip-rule="evenodd" d="M171.496 151.58C172.271 151.737 173.099 151.841 173.874 151.841C174.96 151.841 176.045 151.685 177.132 151.43C177.545 151.325 177.959 151.168 178.476 150.966C178.605 150.914 178.734 150.848 178.863 150.783C178.992 150.718 179.122 150.652 179.251 150.6C180.595 149.933 181.784 149.005 182.818 147.822C182.894 147.72 182.971 147.618 183.047 147.517C183.126 147.412 183.205 147.308 183.284 147.201C183.697 146.633 184.059 146.071 184.37 145.502C184.4 145.378 184.449 145.275 184.494 145.179C184.525 145.113 184.555 145.05 184.576 144.986C184.938 144.215 185.248 143.391 185.404 142.516C186.231 138.647 184.99 134.628 182.198 131.844C180.595 130.197 178.527 129.119 176.304 128.655C173.202 127.982 170.1 128.603 167.463 130.302C164.826 132.053 163.017 134.68 162.397 137.719C161.052 144.058 165.137 150.24 171.496 151.58ZM167.98 131.23C169.738 130.092 171.755 129.478 173.822 129.478C174.546 129.478 175.322 129.583 176.149 129.785C178.165 130.197 180.027 131.177 181.526 132.674C184.059 135.196 185.145 138.804 184.421 142.359C184.215 143.13 184.008 143.901 183.645 144.627C183.629 144.66 183.607 144.697 183.584 144.738C183.533 144.827 183.474 144.931 183.438 145.038C183.128 145.607 182.818 146.123 182.456 146.581C182.301 146.79 182.146 146.999 181.991 147.149C181.06 148.182 179.975 149.057 178.734 149.678C178.648 149.719 178.554 149.761 178.457 149.803C178.322 149.863 178.183 149.924 178.062 149.985C177.87 150.048 177.687 150.111 177.512 150.171C177.264 150.256 177.034 150.336 176.821 150.397C175.166 150.913 173.409 150.966 171.703 150.6C165.912 149.365 162.19 143.751 163.379 137.98C163.948 135.196 165.602 132.772 167.98 131.23Z" fill="#F9B400"/>
<path d="M174.577 128.682C174.645 129.292 176.468 129.474 177.577 129.474C179.046 129.475 180.25 131.15 180.953 131.15C182.167 131.151 184.213 130.359 184.214 128.684C184.215 127.009 180.215 123.094 178.76 123.094C177.305 123.094 174.414 127.233 174.577 128.682Z" fill="#FFCBC2"/>
<path d="M125.506 144.01C125.506 144.01 149.803 150.104 150.844 150.339C151.259 150.462 151.708 150.371 152.04 150.095L152.125 150.016C152.398 149.739 152.777 149.595 153.165 149.62L153.393 149.634C153.958 149.672 154.479 149.332 154.672 148.8L155.686 146.014C155.913 145.386 155.64 144.687 155.048 144.378L154.622 144.157C154.319 143.999 154.089 143.732 153.977 143.409L153.941 143.287C153.846 142.892 153.324 142.483 152.374 142.06L152.22 141.995C149.727 141.002 134.834 136.957 130.004 135.239L129.684 135.122C122.075 132.303 117.513 141.158 125.506 144.01Z" fill="#FE805D"/>
<path d="M152.623 149.697L154.432 144.036L154.523 144.1L154.621 144.155L155.047 144.377C155.601 144.666 155.881 145.3 155.72 145.903L155.684 146.014L154.671 148.801C154.492 149.293 154.03 149.625 153.506 149.637L153.393 149.635L153.165 149.621C152.981 149.609 152.796 149.635 152.623 149.697Z" fill="#FE805D"/>
<path d="M154.064 149.221L155.635 145.105L156.197 145.147C157.475 145.266 158.76 145.28 160.04 145.188L160.371 145.142C161.341 144.997 164.876 144.449 165.366 144.577C166.201 144.796 165.356 145.758 162.833 147.463L163.819 148.154C168 151.109 170.041 152.826 169.941 153.305C169.669 154.623 165.496 152.175 164.662 152.756C162.813 154.039 161.222 154.495 160.302 154.255C159.411 154.022 157.332 152.345 154.064 149.221Z" fill="#FFCBC2"/>
<path d="M111.174 116.124C111.198 116.201 111.225 116.276 111.254 116.351L119.863 138.89C120.923 141.67 123.847 143.272 126.767 142.674C127.911 142.441 128.915 141.763 129.559 140.79C130.202 139.817 130.431 138.629 130.197 137.488C130.149 137.258 130.083 137.032 129.999 136.813L121.026 113.172C120.006 110.485 117.05 109.073 114.313 109.964C111.742 110.8 110.336 113.558 111.174 116.124Z" fill="#FE805D"/>
<path d="M140.174 88.3168L139.455 88.0039V96.0071L140.488 96.2673L141.356 90.4457C141.489 89.5505 141.004 88.6776 140.174 88.3168Z" fill="#4A1A1A"/>
<path d="M127.019 98.837L140.467 88.9137L140.727 88.4776C143.087 84.4759 143.452 82.4411 141.82 82.373H141.731C139.04 82.3698 131.024 80.5105 128.122 82.0597C126.187 83.0916 125.404 84.6282 125.774 86.6695C124.662 86.8491 124.105 87.5971 124.105 88.9137C124.105 90.2301 125.077 93.5379 127.019 98.837Z" fill="#4A1A1A"/>
<path d="M128.108 110.225H134.963V106.205C134.963 106.205 138.255 105.511 139.454 103.526C140.652 101.541 140.465 88.9118 140.465 88.9118C137.683 89.079 134.894 89.079 132.112 88.9118C130.737 88.8313 129.384 88.5247 128.108 88.0039C128.108 88.0039 127.975 92.0568 127.8 93.3115C127.545 95.134 127.046 98.218 127.104 98.7983C127.297 99.9867 127.633 101.148 128.105 102.255L128.108 110.225Z" fill="#FFCBC2"/>
<path d="M133.148 95.5989C133.584 95.5989 133.937 95.2462 133.937 94.8112C133.937 94.3762 133.584 94.0234 133.148 94.0234C132.713 94.0234 132.359 94.3762 132.359 94.8112C132.359 95.2462 132.713 95.5989 133.148 95.5989Z" fill="#212237"/>
<path d="M137.82 95.5989C138.256 95.5989 138.609 95.2462 138.609 94.8112C138.609 94.3762 138.256 94.0234 137.82 94.0234C137.384 94.0234 137.031 94.3762 137.031 94.8112C137.031 95.2462 137.384 95.5989 137.82 95.5989Z" fill="#212237"/>
<path d="M132.471 90.4951C132.87 90.5273 133.256 90.6503 133.6 90.8546C133.741 90.9387 133.788 91.1209 133.704 91.2621C133.62 91.4032 133.437 91.4496 133.296 91.3656C133.03 91.2076 132.732 91.1124 132.471 91.0877C132.162 91.1124 131.864 91.2076 131.598 91.3656C131.457 91.4496 131.274 91.4032 131.19 91.2621C131.106 91.1209 131.153 90.9387 131.294 90.8546C131.638 90.6503 132.024 90.5273 132.471 90.4951Z" fill="#212237"/>
<path d="M137.809 90.3975C138.208 90.4294 138.594 90.5524 138.938 90.757C139.079 90.8408 139.126 91.0233 139.042 91.1644C138.958 91.3055 138.775 91.3517 138.634 91.2679C138.368 91.1097 138.07 91.0147 137.809 90.9898C137.501 91.0147 137.202 91.1097 136.936 91.2679C136.795 91.3517 136.612 91.3055 136.528 91.1644C136.444 91.0233 136.491 90.8408 136.632 90.757C136.976 90.5524 137.362 90.4294 137.809 90.3975Z" fill="#212237"/>
<path d="M134.247 100.407C134.307 100.299 134.443 100.261 134.551 100.321C135.319 100.75 136.24 100.814 137.06 100.493C137.174 100.448 137.304 100.505 137.349 100.62C137.393 100.734 137.337 100.864 137.222 100.908C136.278 101.277 135.218 101.205 134.333 100.71C134.225 100.65 134.187 100.514 134.247 100.407Z" fill="#F7A794"/>
<path d="M134.792 101.379C134.866 101.281 135.006 101.26 135.105 101.334C135.352 101.518 135.666 101.587 135.967 101.525C136.088 101.5 136.206 101.578 136.231 101.698C136.256 101.819 136.178 101.937 136.058 101.962C135.631 102.05 135.187 101.951 134.838 101.691C134.739 101.618 134.719 101.478 134.792 101.379Z" fill="#F7A794"/>
<path d="M135.484 95.6009C135.586 95.5322 135.725 95.5595 135.794 95.6617L136.135 96.186L136.514 96.8028C136.858 97.3849 137.043 97.7648 137.043 97.9755C137.043 98.3308 136.672 98.4562 135.992 98.5326C135.662 98.5696 135.335 98.5818 135.114 98.5818C134.991 98.5818 134.891 98.482 134.891 98.3591C134.891 98.2359 134.991 98.1361 135.114 98.1361L135.489 98.1258C135.631 98.1186 135.787 98.107 135.942 98.0895L136.081 98.0713L136.319 98.0291L136.585 97.9728C136.593 97.9722 136.597 97.9731 136.597 97.9755C136.597 97.9529 136.586 97.9129 136.564 97.8577L136.471 97.6501C136.45 97.609 136.428 97.5645 136.403 97.5177L136.232 97.2055L135.889 96.6335L135.521 96.0582C135.486 96.0044 135.453 95.9547 135.423 95.9101C135.354 95.8079 135.382 95.6694 135.484 95.6009Z" fill="#F7A794"/>
<path d="M141.232 93.7632C141.351 93.7632 141.448 93.8595 141.448 93.9781C141.448 94.0669 141.394 94.1433 141.316 94.1759L141.232 94.1929H140.487C140.368 94.1929 140.271 94.0967 140.271 93.9781C140.271 93.889 140.326 93.8126 140.403 93.78L140.487 93.7632H141.232Z" fill="#313548"/>
<path d="M126.1 93.0254L126.171 93.0346L129.548 94.035C129.666 94.07 129.734 94.1941 129.699 94.312C129.671 94.4066 129.586 94.4685 129.492 94.4715L129.421 94.4624L126.044 93.4621C125.926 93.4271 125.859 93.3031 125.894 93.1849C125.922 93.0906 126.007 93.0287 126.1 93.0254Z" fill="#212237"/>
<path fill-rule="evenodd" clip-rule="evenodd" d="M140.752 92.6724H136.747C136.379 92.6724 136.08 92.971 136.08 93.3393V94.6732C136.08 95.7782 136.976 96.6741 138.082 96.6741H139.417C140.523 96.6741 141.419 95.7782 141.419 94.6732V93.3393C141.419 92.971 141.12 92.6724 140.752 92.6724ZM136.414 94.6732V93.3393C136.414 93.1555 136.563 93.0058 136.747 93.0058H140.752C140.936 93.0058 141.086 93.1555 141.086 93.3393V94.6732C141.086 95.5927 140.337 96.3406 139.417 96.3406H138.082C137.162 96.3406 136.414 95.5927 136.414 94.6732Z" fill="#212237"/>
<path d="M135.486 93.9586C135.769 93.9562 136.05 94.0063 136.314 94.1063C136.429 94.15 136.487 94.2787 136.444 94.3938C136.4 94.5089 136.271 94.5669 136.156 94.5233C135.943 94.4428 135.717 94.4026 135.493 94.4043C135.212 94.4111 134.933 94.4531 134.663 94.5295C134.544 94.5627 134.421 94.4938 134.387 94.3754C134.354 94.257 134.423 94.1339 134.541 94.1004C134.848 94.0139 135.164 93.9662 135.486 93.9586Z" fill="#212237"/>
<path fill-rule="evenodd" clip-rule="evenodd" d="M134.076 92.6724H130.072C129.703 92.6724 129.404 92.971 129.404 93.3393V94.6732C129.404 95.7782 130.301 96.6741 131.406 96.6741H132.741C133.847 96.6741 134.743 95.7782 134.743 94.6732V93.3393C134.743 92.971 134.445 92.6724 134.076 92.6724ZM129.738 94.6732V93.3393C129.738 93.1555 129.888 93.0058 130.072 93.0058H134.076C134.26 93.0058 134.41 93.1555 134.41 93.3393V94.6732C134.41 95.5927 133.661 96.3406 132.741 96.3406H131.406C130.486 96.3406 129.738 95.5927 129.738 94.6732Z" fill="#212237"/>
<path d="M134.965 106.205C134.033 106.107 133.118 105.886 132.245 105.547C131.28 104.955 130.369 104.279 129.523 103.526V110.178H134.965V106.205Z" fill="#F7A794"/>
<path d="M125.105 92.2183C126.027 92.2183 126.774 92.9646 126.774 93.8856V96.2198C126.774 96.5882 126.475 96.8867 126.106 96.8867H125.773C125.18 96.8867 124.66 96.4944 124.497 95.925L123.895 93.8189C123.788 93.4399 123.864 93.0323 124.102 92.7178C124.34 92.4036 124.711 92.2187 125.105 92.2183Z" fill="#F9BBAF"/>
<path d="M132.241 109.621L131.14 112.755L126.617 109.667C126.617 108.796 127.459 108.173 128.294 108.425L132.241 109.621Z" fill="url(#paint19_linear_255_36299)"/>
<path d="M132.496 109.621L133.878 112.755L135.662 109.621C135.662 109.011 135.044 108.595 134.478 108.823L132.496 109.621Z" fill="url(#paint20_linear_255_36299)"/>
<path d="M176.057 151.826C174.857 151.448 173.212 150.326 173.463 149.921C173.715 149.517 176.914 150.564 176.914 150.564L181.562 150.697L186.002 149.203L186.879 150.982C185.086 151.763 183.252 152.445 181.384 153.024C179.81 153.389 177.257 152.203 176.057 151.826Z" fill="#F9B384"/>
<path d="M92.0691 251.516H101.88C108.721 258.47 112.141 264.507 112.141 269.623C112.141 277.297 104.193 278.409 96.9744 278.409H96.5406C89.4418 278.36 81.8164 277.142 81.8164 269.623C81.8164 264.507 85.234 258.47 92.0691 251.516Z" fill="url(#paint21_linear_255_36299)"/>
<path d="M92.0691 251.516H101.88C108.721 258.47 112.141 264.507 112.141 269.623C112.141 277.297 104.193 278.409 96.9744 278.409H96.5406C89.4418 278.36 81.8164 277.142 81.8164 269.623C81.8164 264.507 85.234 258.47 92.0691 251.516Z" fill="url(#paint22_linear_255_36299)"/>
<path d="M90.3703 244.124L91.7217 244.547C92.8142 244.89 93.9853 244.89 95.0778 244.547L95.2956 244.479C96.388 244.137 97.5594 244.137 98.6518 244.479L98.8696 244.547C99.9621 244.89 101.133 244.89 102.226 244.547L103.577 244.124C103.679 244.094 103.789 244.122 103.862 244.201C103.935 244.277 103.958 244.389 103.921 244.49L101.318 251.514H92.6282L90.0234 244.49C89.9862 244.389 90.0092 244.275 90.083 244.199C90.1566 244.12 90.2682 244.091 90.3703 244.124Z" fill="#99B3FF"/>
<path d="M90.3703 244.124L91.7217 244.547C92.8142 244.89 93.9853 244.89 95.0778 244.547L95.2956 244.479C96.388 244.137 97.5594 244.137 98.6518 244.479L98.8696 244.547C99.9621 244.89 101.133 244.89 102.226 244.547L103.577 244.124C103.679 244.094 103.789 244.122 103.862 244.201C103.935 244.277 103.958 244.389 103.921 244.49L101.318 251.514H92.6282L90.0234 244.49C89.9862 244.389 90.0092 244.275 90.083 244.199C90.1566 244.12 90.2682 244.091 90.3703 244.124Z" fill="url(#paint23_linear_255_36299)"/>
<path d="M101.879 250.956C102.343 250.956 102.72 251.332 102.72 251.796C102.72 252.26 102.343 252.637 101.879 252.637H94.1555L94.1557 259.562C94.1557 259.987 93.8106 260.332 93.3849 260.332C92.9591 260.332 92.6141 259.987 92.6141 259.562V255.076L90.8807 259.354C90.7177 259.744 90.2718 259.928 89.8805 259.77C89.4892 259.612 89.2979 259.168 89.4515 258.777L91.9427 252.628C91.5378 252.567 91.2275 252.219 91.2275 251.796C91.2275 251.332 91.604 250.956 92.0685 250.956H101.879Z" fill="#F2A50B"/>
<path d="M111.87 269.174C111.81 269.415 111.75 269.658 111.629 269.899C111.509 270.262 111.389 270.623 111.208 270.925C111.148 271.107 111.027 271.288 110.967 271.47C110.666 272.074 108.647 273.859 108.286 274.404C108.105 274.645 107.925 274.826 107.804 275.067C106.781 276.275 104.155 275.886 102.77 276.61C102.53 276.73 102.471 276.654 102.23 276.774C101.748 276.956 102.363 276.697 101.881 276.818C101.641 276.877 101.34 276.938 101.099 276.999L94.502 269.695L96.1545 269.842L96.4555 269.177L94.8952 267.632C94.8952 267.632 98.5966 264.914 98.4763 264.792C98.4156 264.732 99.8554 259.995 99.8554 259.995L101.145 260.908L102.695 259.995L111.87 269.174Z" fill="url(#paint24_linear_255_36299)"/>
<path d="M100.88 274.039C97.1526 269.794 95.2887 267.638 95.2887 267.577V267.557C96.1127 267.557 96.9756 267.347 97.8767 266.927C98.3597 266.739 98.8651 266.328 99.393 265.695C99.7922 265.067 100.011 264.531 100.05 264.087H101.769C101.782 264.087 102.084 263.654 102.676 262.789C102.676 262.77 102.66 262.757 102.628 262.75H99.9821C99.8599 262.192 99.6281 261.719 99.2869 261.33H101.769C101.84 261.275 102.149 260.835 102.696 260.015V259.995H93.4054C93.3861 259.995 93.0803 260.424 92.488 261.284V261.33H94.9409C95.3531 261.33 95.8167 261.413 96.3316 261.575C97.0527 261.851 97.5389 262.236 97.79 262.733V262.75H93.4054C93.3927 262.75 93.0803 263.183 92.4688 264.05C92.4688 264.074 92.4817 264.087 92.5073 264.087H98.0314C98.0314 264.288 97.9926 264.481 97.9155 264.669C97.4197 265.956 96.1546 266.599 94.1202 266.599C93.6887 266.599 93.3121 266.577 92.9902 266.533L92.9709 266.579V267.831C92.9709 267.848 94.7865 269.918 98.4177 274.039H100.88Z" fill="url(#paint25_linear_255_36299)"/>
<path d="M156.06 233.333H172.879C184.605 245.256 190.468 255.601 190.468 264.372C190.468 277.527 176.843 279.431 164.47 279.431H163.726C151.557 279.352 138.484 277.262 138.484 264.372C138.484 255.601 144.343 245.256 156.06 233.333Z" fill="url(#paint26_linear_255_36299)"/>
<path d="M156.06 233.333H172.879C184.605 245.256 190.468 255.601 190.468 264.372C190.468 277.527 176.843 279.431 164.47 279.431H163.726C151.557 279.352 138.484 277.262 138.484 264.372C138.484 255.601 144.343 245.256 156.06 233.333Z" fill="url(#paint27_linear_255_36299)"/>
<path d="M153.15 220.661L155.462 221.387C157.335 221.974 159.343 221.974 161.216 221.387L161.589 221.269C163.461 220.683 165.469 220.683 167.342 221.269L167.715 221.387C169.588 221.974 171.596 221.974 173.469 221.387L175.787 220.661C175.962 220.606 176.153 220.654 176.28 220.788C176.406 220.921 176.446 221.114 176.382 221.284L171.917 233.332H157.02L152.555 221.284C152.492 221.114 152.531 220.921 152.658 220.788C152.784 220.654 152.975 220.606 153.15 220.661Z" fill="#99B3FF"/>
<path d="M153.15 220.661L155.462 221.387C157.335 221.974 159.343 221.974 161.216 221.387L161.589 221.269C163.461 220.683 165.469 220.683 167.342 221.269L167.715 221.387C169.588 221.974 171.596 221.974 173.469 221.387L175.787 220.661C175.962 220.606 176.153 220.654 176.28 220.788C176.406 220.921 176.446 221.114 176.382 221.284L171.917 233.332H157.02L152.555 221.284C152.492 221.114 152.531 220.921 152.658 220.788C152.784 220.654 152.975 220.606 153.15 220.661Z" fill="url(#paint28_linear_255_36299)"/>
<path d="M156.061 232.372H172.879C173.675 232.372 174.321 233.017 174.321 233.814C174.321 234.608 173.675 235.253 172.879 235.253H156.061C155.265 235.253 154.619 234.608 154.619 233.814C154.619 233.017 155.265 232.372 156.061 232.372Z" fill="url(#paint29_linear_255_36299)"/>
<path d="M156.061 232.372H172.879C173.675 232.372 174.321 233.017 174.321 233.814C174.321 234.608 173.675 235.253 172.879 235.253H156.061C155.265 235.253 154.619 234.608 154.619 233.814C154.619 233.017 155.265 232.372 156.061 232.372Z" fill="#F2A50B"/>
<path d="M190.551 262.56C190.451 262.964 190.351 263.367 190.15 263.77C189.949 264.374 189.749 264.978 189.447 265.481C189.347 265.783 189.146 266.085 189.046 266.387C188.544 267.393 182.715 270.369 182.113 271.275C181.811 271.68 181.511 271.982 181.31 272.384C179.604 274.398 175.228 273.746 172.919 274.956C172.518 275.155 172.42 275.026 172.018 275.227C171.215 275.529 172.24 275.098 171.437 275.301C171.037 275.4 170.535 275.5 170.133 275.603L159.139 263.428L161.893 263.673L162.395 262.566L159.794 259.991C159.794 259.991 165.963 255.459 165.763 255.258C165.662 255.157 168.061 247.262 168.061 247.262L170.21 248.781L172.794 247.262L190.551 262.56Z" fill="url(#paint30_linear_255_36299)"/>
<path d="M169.769 270.669C163.556 263.592 160.45 260.002 160.45 259.899V259.866C161.823 259.866 163.261 259.516 164.764 258.816C165.568 258.503 166.411 257.818 167.291 256.763C167.956 255.717 168.321 254.824 168.385 254.083H171.25C171.272 254.083 171.776 253.361 172.763 251.919C172.763 251.888 172.736 251.866 172.683 251.855H168.272C168.068 250.925 167.682 250.137 167.114 249.488H171.25C171.368 249.393 171.883 248.663 172.795 247.293V247.262H157.311C157.279 247.262 156.769 247.978 155.782 249.411V249.488H159.871C160.557 249.488 161.33 249.623 162.188 249.897C163.39 250.356 164.2 251 164.619 251.825V251.855H157.311C157.29 251.855 156.769 252.577 155.75 254.019C155.75 254.061 155.771 254.083 155.814 254.083H165.021C165.021 254.415 164.957 254.739 164.828 255.054C164.002 257.196 161.893 258.269 158.502 258.269C157.783 258.269 157.156 258.231 156.619 258.157L156.587 258.236V260.321C156.587 260.352 159.613 263.803 165.665 270.669H169.769Z" fill="url(#paint31_linear_255_36299)"/>
<defs>
<linearGradient id="paint0_linear_255_36299" x1="0" y1="0" x2="0" y2="354" gradientUnits="userSpaceOnUse">
<stop stop-color="#C5DCFF"/>
<stop offset="1" stop-color="white" stop-opacity="0.01"/>
</linearGradient>
<linearGradient id="paint1_linear_255_36299" x1="43.4885" y1="70.6189" x2="43.4885" y2="354" gradientUnits="userSpaceOnUse">
<stop stop-color="#D0DCFE"/>
<stop offset="1" stop-color="white" stop-opacity="0.01"/>
</linearGradient>
<linearGradient id="paint2_linear_255_36299" x1="75.1072" y1="269.76" x2="94.3606" y2="269.76" gradientUnits="userSpaceOnUse">
<stop offset="0.00289017" stop-color="#FFD44F"/>
<stop offset="1" stop-color="#FFA607"/>
</linearGradient>
<linearGradient id="paint3_linear_255_36299" x1="74.5453" y1="266.574" x2="93.7999" y2="266.574" gradientUnits="userSpaceOnUse">
<stop offset="0.00289017" stop-color="#FFD44F"/>
<stop offset="1" stop-color="#FFA607"/>
</linearGradient>
<linearGradient id="paint4_linear_255_36299" x1="75.1049" y1="263.394" x2="94.3589" y2="263.394" gradientUnits="userSpaceOnUse">
<stop offset="0.00289017" stop-color="#FFD44F"/>
<stop offset="1" stop-color="#FFA607"/>
</linearGradient>
<linearGradient id="paint5_linear_255_36299" x1="72.8893" y1="276.114" x2="92.1433" y2="276.114" gradientUnits="userSpaceOnUse">
<stop offset="0.00289017" stop-color="#FFD44F"/>
<stop offset="1" stop-color="#FFA607"/>
</linearGradient>
<linearGradient id="paint6_linear_255_36299" x1="76.6185" y1="272.935" x2="95.8732" y2="272.935" gradientUnits="userSpaceOnUse">
<stop offset="0.00289017" stop-color="#FFD44F"/>
<stop offset="1" stop-color="#FFA607"/>
</linearGradient>
<linearGradient id="paint7_linear_255_36299" x1="48.6775" y1="247.853" x2="80.1241" y2="247.853" gradientUnits="userSpaceOnUse">
<stop offset="0.00289017" stop-color="#FFD44F"/>
<stop offset="1" stop-color="#FFA607"/>
</linearGradient>
<linearGradient id="paint8_linear_255_36299" x1="62.9241" y1="236.753" x2="70.9234" y2="242.641" gradientUnits="userSpaceOnUse">
<stop stop-color="#FAA404"/>
<stop offset="1" stop-color="#FF7904" stop-opacity="0.01"/>
</linearGradient>
<linearGradient id="paint9_linear_255_36299" x1="70.2752" y1="235.29" x2="60.2894" y2="228.902" gradientUnits="userSpaceOnUse">
<stop stop-color="#FFE491"/>
<stop offset="1" stop-color="white"/>
</linearGradient>
<linearGradient id="paint10_linear_255_36299" x1="211.761" y1="190.895" x2="230.971" y2="189.213" gradientUnits="userSpaceOnUse">
<stop stop-color="#4A198A"/>
<stop offset="1" stop-color="#0A0717"/>
</linearGradient>
<linearGradient id="paint11_linear_255_36299" x1="317.742" y1="163.981" x2="317.742" y2="150.789" gradientUnits="userSpaceOnUse">
<stop stop-color="#4A198A"/>
<stop offset="1" stop-color="#181134"/>
</linearGradient>
<linearGradient id="paint12_linear_255_36299" x1="222.339" y1="149.088" x2="221.78" y2="157.549" gradientUnits="userSpaceOnUse">
<stop stop-color="#858AFC"/>
<stop offset="0.538" stop-color="#B3B2FE"/>
<stop offset="1" stop-color="#F4CDFA"/>
</linearGradient>
<linearGradient id="paint13_linear_255_36299" x1="219.281" y1="148.411" x2="219.281" y2="162.781" gradientUnits="userSpaceOnUse">
<stop stop-color="white"/>
<stop offset="0.358" stop-color="#F7F7FD"/>
<stop offset="1" stop-color="#D1DBFF"/>
</linearGradient>
<linearGradient id="paint14_linear_255_36299" x1="215.688" y1="148.727" x2="217.684" y2="148.726" gradientUnits="userSpaceOnUse">
<stop stop-color="#4A198A"/>
<stop offset="1" stop-color="#181134"/>
</linearGradient>
<linearGradient id="paint15_linear_255_36299" x1="78.7645" y1="206.369" x2="162.181" y2="206.369" gradientUnits="userSpaceOnUse">
<stop stop-color="#CFC9FF"/>
<stop offset="1" stop-color="#7C12ED"/>
</linearGradient>
<linearGradient id="paint16_linear_255_36299" x1="159.951" y1="154.01" x2="187.778" y2="154.01" gradientUnits="userSpaceOnUse">
<stop offset="0.00289017" stop-color="#FFD44F"/>
<stop offset="1" stop-color="#FFA607"/>
</linearGradient>
<linearGradient id="paint17_linear_255_36299" x1="172.559" y1="144.186" x2="179.638" y2="149.398" gradientUnits="userSpaceOnUse">
<stop stop-color="#FAA404"/>
<stop offset="1" stop-color="#FF7904" stop-opacity="0.01"/>
</linearGradient>
<linearGradient id="paint18_linear_255_36299" x1="179.064" y1="142.893" x2="170.227" y2="137.24" gradientUnits="userSpaceOnUse">
<stop stop-color="#FFE491"/>
<stop offset="1" stop-color="white"/>
</linearGradient>
<linearGradient id="paint19_linear_255_36299" x1="119.513" y1="100.409" x2="119.513" y2="114.265" gradientUnits="userSpaceOnUse">
<stop stop-color="white"/>
<stop offset="0.358" stop-color="#F7F7FD"/>
<stop offset="1" stop-color="#D1DBFF"/>
</linearGradient>
<linearGradient id="paint20_linear_255_36299" x1="128.495" y1="101.503" x2="128.495" y2="114.131" gradientUnits="userSpaceOnUse">
<stop stop-color="white"/>
<stop offset="0.358" stop-color="#F7F7FD"/>
<stop offset="1" stop-color="#D1DBFF"/>
</linearGradient>
<linearGradient id="paint21_linear_255_36299" x1="117.937" y1="260.118" x2="89.334" y2="247.501" gradientUnits="userSpaceOnUse">
<stop stop-color="#384FC3"/>
<stop offset="1" stop-color="#BAAAFB"/>
</linearGradient>
<linearGradient id="paint22_linear_255_36299" x1="81.835" y1="278.385" x2="112.146" y2="278.385" gradientUnits="userSpaceOnUse">
<stop offset="0.00289017" stop-color="#FFD44F"/>
<stop offset="1" stop-color="#FFA607"/>
</linearGradient>
<linearGradient id="paint23_linear_255_36299" x1="90.0144" y1="251.507" x2="103.941" y2="251.507" gradientUnits="userSpaceOnUse">
<stop offset="0.00289017" stop-color="#FFD44F"/>
<stop offset="1" stop-color="#FFA607"/>
</linearGradient>
<linearGradient id="paint24_linear_255_36299" x1="95.9834" y1="269.705" x2="102.43" y2="276.336" gradientUnits="userSpaceOnUse">
<stop stop-color="#FAA404"/>
<stop offset="1" stop-color="#FF7904" stop-opacity="0.01"/>
</linearGradient>
<linearGradient id="paint25_linear_255_36299" x1="103.269" y1="268.947" x2="94.0656" y2="263.059" gradientUnits="userSpaceOnUse">
<stop stop-color="#FFE491"/>
<stop offset="1" stop-color="white"/>
</linearGradient>
<linearGradient id="paint26_linear_255_36299" x1="200.405" y1="248.077" x2="151.373" y2="226.447" gradientUnits="userSpaceOnUse">
<stop stop-color="#384FC3"/>
<stop offset="1" stop-color="#BAAAFB"/>
</linearGradient>
<linearGradient id="paint27_linear_255_36299" x1="138.516" y1="279.393" x2="190.477" y2="279.393" gradientUnits="userSpaceOnUse">
<stop offset="0.00289017" stop-color="#FFD44F"/>
<stop offset="1" stop-color="#FFA607"/>
</linearGradient>
<linearGradient id="paint28_linear_255_36299" x1="152.54" y1="233.322" x2="176.416" y2="233.322" gradientUnits="userSpaceOnUse">
<stop offset="0.00289017" stop-color="#FFD44F"/>
<stop offset="1" stop-color="#FFA607"/>
</linearGradient>
<linearGradient id="paint29_linear_255_36299" x1="186.561" y1="236.035" x2="186.561" y2="230.431" gradientUnits="userSpaceOnUse">
<stop stop-color="#F7F7FD"/>
<stop offset="1" stop-color="#D1DBFF"/>
</linearGradient>
<linearGradient id="paint30_linear_255_36299" x1="161.138" y1="263.026" x2="170.903" y2="274.852" gradientUnits="userSpaceOnUse">
<stop stop-color="#FAA404"/>
<stop offset="1" stop-color="#FF7904" stop-opacity="0.01"/>
</linearGradient>
<linearGradient id="paint31_linear_255_36299" x1="173.749" y1="262.181" x2="158.411" y2="252.368" gradientUnits="userSpaceOnUse">
<stop stop-color="#FFE491"/>
<stop offset="1" stop-color="white"/>
</linearGradient>
</defs>
</svg>
