<!DOCTYPE svg PUBLIC "-//W3C//DTD SVG 1.1//EN" "http://www.w3.org/Graphics/SVG/1.1/DTD/svg11.dtd">
<!-- Uploaded to: SVG Repo, www.svgrepo.com, Transformed by: SVG Repo Mixer Tools -->
<svg fill="#2563EB" width="800px" height="800px" viewBox="0 0 32 32" id="icon" xmlns="http://www.w3.org/2000/svg" stroke="#2563EB" stroke-width="0.00032">
<g id="SVGRepo_bgCarrier" stroke-width="0"/>
<g id="SVGRepo_tracerCarrier" stroke-linecap="round" stroke-linejoin="round"/>
<g id="SVGRepo_iconCarrier">
<defs>
<style>.cls-1{fill:none;}</style>
</defs>
<title>percentage</title>
<path d="M9,14a5,5,0,1,1,5-5A5.0055,5.0055,0,0,1,9,14ZM9,6a3,3,0,1,0,3,3A3.0033,3.0033,0,0,0,9,6Z"/>
<rect x="0.0293" y="15.0001" width="31.9413" height="1.9998" transform="translate(-6.6274 16) rotate(-45)"/>
<path d="M23,28a5,5,0,1,1,5-5A5.0055,5.0055,0,0,1,23,28Zm0-8a3,3,0,1,0,3,3A3.0033,3.0033,0,0,0,23,20Z"/>
<rect id="_Transparent_Rectangle_" data-name="&lt;Transparent Rectangle&gt;" class="cls-1" width="32" height="32"/>
</g>
</svg>